<svg width="250" height="250" viewBox="0 0 250 250" fill="none" xmlns="http://www.w3.org/2000/svg">
<g clip-path="url(#clip0_82_2)">
<rect width="250" height="250" rx="42" fill="white"/>
<g opacity="0.7">
<path d="M111.884 92.7115C113.009 104.25 114.796 115.693 117.269 127.101C119.335 138.543 122.973 150.059 128.933 160.756C140.52 182.36 154.435 202.819 167.271 224.057L166.952 224.134C150.749 204.746 136.718 183.666 127.174 161.245C122.606 150.018 117.91 138.821 114.487 127.318C111.408 115.796 110.312 103.992 111.492 92.6113L111.859 92.6525L111.884 92.7115Z" fill="#232522"/>
<path d="M111.472 93.0704C108.969 88.0287 107.694 83.0801 107.16 77.8881C106.777 72.7245 107.231 67.5537 109.149 62.8737C111.067 58.1936 114.217 54.1247 117.891 50.6435C121.452 47.0597 126.626 44.8388 129.204 40.9081L130.701 38.6004L130.995 41.5145C131.948 51.2775 132.616 61.3687 130.21 70.9682C129.051 75.7898 126.996 80.3081 123.948 84.2873C120.876 88.2074 116.851 91.514 111.447 93.0114L111.472 93.0704ZM111.565 92.7883C115.766 90.413 119.287 86.9035 121.713 82.9445C124.202 78.9701 125.659 74.5309 126.813 70.0351C128.856 60.9125 128.892 51.1705 129.12 41.3825L130.911 41.9889C127.393 46.0166 122.127 47.6757 118.83 51.3905C115.284 54.841 113.229 59.3593 111.884 63.9012C110.476 68.4584 109.763 73.1725 109.833 78.0872C109.815 82.9581 110.731 88.058 111.653 92.832L111.565 92.7883Z" fill="#232522"/>
<path d="M111.06 101.735C108.858 98.4376 106.923 95.7893 105.268 93.1387C103.5 90.3854 101.159 87.7703 98.7098 85.5707C96.2361 83.312 93.1743 81.3249 89.931 79.5763C86.6877 77.8276 83.2627 76.3175 80.2064 74.0046L81.5641 73.2231C83.5419 76.3151 85.4315 79.3634 87.1545 82.5168C88.8382 85.7446 90.8065 88.6442 93.0051 91.4233C95.1793 94.1435 97.7356 96.7716 100.749 98.6407C103.722 100.584 107.471 101.692 110.996 101.75L111.06 101.735ZM111.349 101.925C107.61 103.215 103.298 102.438 99.5602 100.679C95.7979 98.8609 92.659 96.1787 90.1475 93.1506C87.6359 90.1224 85.8398 86.7919 84.3715 83.5771C82.8152 80.3186 81.3862 77.0294 80.0209 73.7249L78.4605 69.9483L81.3542 72.8843C83.7736 75.3507 87.0806 77.084 90.3782 78.6249C93.7151 80.0915 97.3216 81.3633 100.53 83.7044C103.61 86.0763 105.946 89.0171 107.629 92.2449C109.195 95.6957 110.458 99.09 111.388 101.85L111.349 101.925Z" fill="#232522"/>
<path d="M114.157 125.84C112.712 123.528 111.222 121.616 109.971 119.777C108.873 117.965 107.295 116.01 105.701 114.188C102.555 110.469 98.8927 107.199 94.9857 104.183C91.0786 101.167 86.7203 98.5838 81.9596 96.5521C77.3018 94.4307 72.3445 92.7709 67.6922 90.3237L68.7762 89.2188C76.475 96.8363 79.5968 106.595 86.6752 113.389C90.234 116.749 94.5137 119.48 99.2501 121.453C103.947 123.5 109.189 124.832 114.093 125.856L114.157 125.84ZM114.446 126.03C108.976 126.181 103.738 125.367 98.4775 123.651C93.2804 121.919 88.2271 119.179 84.2822 115.394C80.2099 111.639 77.6227 107.071 75.1967 102.725C72.7706 98.3783 70.6237 94.0293 67.4917 90.1774L64.3354 86.2665L68.6394 89.0572C72.7917 91.8195 77.6162 93.8358 82.4068 95.6008C87.1581 97.44 92.1884 99.2769 96.6537 102.288C101.095 105.241 104.736 108.97 107.789 112.97C110.873 116.704 112.758 122.284 114.446 126.03Z" fill="#232522"/>
<path d="M122.446 148.953C120.398 143.996 116.479 139.426 111.804 136.076C107.143 132.592 101.663 130.345 96.011 128.528C90.398 126.637 84.4856 125.207 78.5771 124.296C72.6199 123.267 66.6423 122.696 60.6851 121.667L61.2164 120.241C67.1165 123.166 71.2306 128.209 75.0372 132.677C78.8289 137.278 83.038 141.194 88.1644 144.111C93.2909 147.028 99.0163 149.022 104.915 149.741C110.775 150.534 116.896 150.097 122.47 149.012L122.446 148.953ZM122.735 149.143C117.217 151.382 111.252 152.366 104.901 152.08C98.5906 151.72 92.101 149.91 86.4854 146.657C80.752 143.627 76.0499 138.856 72.4885 134.135C68.7361 129.459 65.4294 124.676 60.3572 121.551L55.8621 118.807L60.8641 120.066C66.6736 121.586 72.6701 122.541 78.6084 123.185C84.5318 123.963 90.6368 124.503 96.6224 126.11C102.608 127.716 108.499 130.449 113.354 134.404C118.146 138.375 121.917 143.436 122.735 149.143Z" fill="#232522"/>
<path d="M145.11 192.284C138.453 188.374 131.434 184.097 124.34 180.486C117.262 176.742 109.972 173.504 102.666 170.398C95.2977 167.308 87.826 164.308 80.0981 162.213C72.3852 159.985 64.519 158.572 56.6812 157.736L57.3736 156.531C63.3276 162.298 69.2327 167.947 75.6921 173.073C82.0878 178.215 89.1706 182.477 96.7791 185.639C104.427 188.726 112.498 190.804 120.59 191.578C128.643 192.426 137.082 191.495 145.135 192.343L145.11 192.284ZM145.438 192.4C136.957 192.888 129.272 194.286 120.664 193.961C112.184 193.604 103.629 191.709 95.5648 188.462C87.4617 185.29 80.0715 180.453 73.6176 175.001C67.1637 169.549 61.6217 163.423 56.0648 157.431L54.5692 155.845L56.6691 156.182C64.5746 157.52 72.411 159.2 80.2812 161.131C88.0877 163.077 95.9036 165.216 103.542 168.111C111.156 170.947 118.489 174.629 125.514 178.581C132.548 182.725 139.136 186.976 145.375 192.415L145.438 192.4Z" fill="#232522"/>
<path d="M145.368 190.535C151.764 189.577 157.977 187.495 163.329 184.518C168.793 181.643 173.413 177.739 177.631 173.543C181.849 169.346 185.681 164.723 188.672 159.59C191.751 154.5 194.037 149.018 196.235 143.491L197.472 144.621C185.081 149.035 173.804 155.129 163.323 162.133C158.127 165.657 153.043 169.283 149.387 173.993C145.873 178.539 143.057 184.604 145.456 190.579L145.368 190.535ZM145.186 190.774C141.295 184.574 143.618 177.655 146.951 172.504C150.515 167.232 155.595 163.088 160.894 159.474C171.469 152.188 183.49 146.37 196.599 143.014L198.636 142.523L197.772 144.159L189.641 160.07C186.762 165.306 183.845 170.617 179.797 175.226C171.678 184.387 159.248 191.082 145.162 190.715L145.186 190.774Z" fill="#232522"/>
<path d="M123.393 150.737C128.872 150.778 134.48 149.945 139.443 148.229C144.518 146.616 149.013 144.105 153.458 141.476C157.904 138.847 162.252 135.982 166.439 132.896C170.65 129.869 174.612 126.578 178.526 123.169L179.263 124.613C167.73 125.512 156.679 127.917 146.341 131.707C141.196 133.661 136.189 135.777 131.977 138.804C127.893 141.8 124.009 145.786 123.481 150.78L123.393 150.737ZM123.123 150.931C122.345 145.149 126.025 140.498 129.993 136.881C134.176 133.277 139.268 130.687 144.603 128.687C155.187 124.643 167.054 122.69 178.923 122.943L181.611 123.009L179.66 124.388C175.424 127.356 171.213 130.382 167.251 133.674C163.24 136.847 159.576 140.52 155.213 143.519C146.59 149.426 135.105 153.493 123.123 150.931Z" fill="#232522"/>
<path d="M114.195 123.56C118.517 124.529 123.037 124.283 127.015 123.064C131.042 121.964 134.478 119.773 137.826 117.538C141.238 115.288 144.689 112.963 147.979 110.418C151.381 107.976 154.696 105.49 158.773 103.663L159.407 105.197C150.332 106.282 141.326 107.026 133.017 109.289C128.951 110.464 125.056 112.052 121.933 114.492C118.697 116.829 116.243 120.211 114.234 123.485L114.195 123.56ZM113.877 123.637C114.873 119.438 116.799 115.794 119.957 112.762C123.052 109.745 127.198 107.577 131.607 106.384C140.416 103.806 149.832 103.548 159.052 103.661L164.683 103.73L159.646 105.269C155.605 106.503 151.953 108.681 148.839 111.314C145.637 113.903 143.061 116.989 139.732 119.609C136.467 122.213 132.448 124.35 127.941 125.307C123.411 126.205 118.377 126.055 113.877 123.637Z" fill="#232522"/>
<path d="M111.927 101.461C116.009 102.358 120.323 102.292 124.144 101.371C128.077 100.552 131.493 98.82 135.036 97.0573C138.516 95.3099 141.937 93.2522 145.471 91.2971C148.941 89.3574 152.201 87.079 155.373 84.7569L156.262 86.2297C152.308 87.5074 148.242 88.6824 143.917 89.4007C139.592 90.119 135.288 90.3781 131.145 90.8579C127.05 91.4558 122.98 92.1127 119.427 93.683C115.914 95.1789 113.089 98.0014 111.927 101.461ZM111.633 101.597C111.513 97.408 114.149 93.7877 117.864 91.5942C121.579 89.4006 125.885 88.2976 130.195 87.7127C134.52 86.9944 138.946 87.0303 143.026 86.5658C147.169 86.086 151.342 85.3394 155.54 84.6518L160.844 83.7623L156.365 86.14C152.87 88.0207 149.376 89.9014 146.179 92.1645C142.822 94.2069 140.148 97.0577 136.712 99.2488C133.339 101.425 129.317 103.043 124.904 103.718C120.506 104.259 115.806 103.9 111.594 101.671L111.633 101.597Z" fill="#232522"/>
<path d="M111.003 92.2751C111.215 85.6702 114.852 80.5756 117.916 75.6192C121.004 70.7218 123.986 65.396 123.125 59.2446C124.608 65.3758 122.061 71.2457 119.438 76.4204C116.838 81.6541 113.984 86.9492 114.347 92.5719L110.939 92.2904L111.003 92.2751Z" fill="#232522"/>
<path d="M111.604 104.069C106.903 101.504 104.026 97.5909 101.359 94.0163C98.6915 90.4417 95.9754 86.749 91.7784 84.3868C96.2112 86.3029 99.5885 89.9009 102.692 93.1757C105.82 96.5095 109.075 99.8125 112.98 101.467L111.629 104.128L111.604 104.069Z" fill="#232522"/>
<path d="M144.125 192.781C138.974 192.855 133.953 191.211 129.78 188.908C125.441 186.71 121.205 184.422 117.002 182.385C108.509 178.269 99.4562 175.001 90.299 172.666C99.6039 174.511 108.805 177.289 117.646 181.062C122.079 182.978 126.345 184.999 130.626 186.887C134.853 188.982 139.375 190.098 143.528 189.811L144.086 192.856L144.125 192.781Z" fill="#232522"/>
<path d="M114.733 127.064C109.234 124.432 105.779 120.138 102.329 116.363C98.9423 112.573 95.1004 108.697 89.8884 107.099C95.2481 108.208 99.7268 111.929 103.574 115.479C107.422 119.029 111.278 122.771 115.932 124.374L114.757 127.123L114.733 127.064Z" fill="#232522"/>
<path d="M113.937 123.103C114.925 120.918 116.788 119.496 118.806 118.62C120.865 117.669 123.078 117.265 125.189 116.951C129.436 116.381 133.853 116.225 137.289 114.034C134.263 116.71 129.723 117.415 125.76 118.501C121.811 119.453 117.999 121.41 117.2 124.393L113.961 123.162L113.937 123.103Z" fill="#232522"/>
<path d="M110.337 101.001C111.521 98.4442 114.308 97.902 116.301 97.8108C118.54 97.4658 120.43 97.4644 122.452 97.1064C126.395 96.4803 130.231 95.4257 133.847 93.84C130.617 95.8517 126.937 97.4527 123.062 98.5817C121.137 99.1757 118.986 99.5643 117.203 99.9942C115.308 100.321 113.759 101.149 113.64 102.216L110.4 100.986L110.337 101.001Z" fill="#232522"/>
<path d="M122.697 148.374C124.724 148.534 126.762 148.043 128.677 147.256C130.569 146.411 132.329 145.078 134.211 144.04C137.814 141.744 141.745 139.564 145.992 138.15C142.028 140.079 138.625 142.522 135.306 145.334C133.545 146.667 132.113 148.115 130.153 149.301C128.168 150.429 125.83 151.382 123.064 151.465L122.721 148.433L122.697 148.374Z" fill="#232522"/>
<path d="M123.534 151.416C119.637 150.798 116.115 149.052 113.038 147.198L104.117 141.368C98.1153 137.689 91.5148 134.933 84.5794 133.231C91.5988 134.458 98.4989 136.753 104.937 140.132L114.236 145.352C117.303 147.014 120.542 148.244 123.646 148.469L123.558 151.475L123.534 151.416Z" fill="#232522"/>
<path d="M143.255 189.487C145.838 182.181 152.06 177.242 158.369 173.19C164.741 169.123 171.509 165.675 176.733 160.522C172.023 166.07 165.386 170.006 159.527 174.468C153.707 178.856 148.293 184.055 146.597 190.628L143.279 189.546L143.255 189.487Z" fill="#232522"/>
</g>
</g>
<defs>
<clipPath id="clip0_82_2">
<rect width="250" height="250" rx="42" fill="white"/>
</clipPath>
</defs>
</svg>
