<svg width="235" height="340" viewBox="0 0 235 340" fill="none" xmlns="http://www.w3.org/2000/svg">
<g opacity="0.5">
<path d="M91.4524 51.9723C93.4689 47.9027 94.9214 43.428 94.8659 38.5814C94.9276 33.7453 93.1154 28.7404 89.7491 25.0717C86.5621 21.36 81.367 18.7074 76.4644 19.9191C74.141 20.3593 71.8626 21.9844 70.7336 24.0674C69.6047 26.1504 67.8957 26.1735 65.4696 26.3683C59.7905 26.8015 56.8027 33.2634 57.6708 38.3014C58.2901 43.5531 61.4194 48.2042 65.4146 51.2211C69.4719 54.1845 73.8833 56.1761 78.7876 56.854C83.5892 57.2865 88.953 56.2345 91.5001 52.1537L91.4524 51.9723ZM91.0533 51.7592C88.6378 55.6157 83.0019 55.3442 79.2022 53.9391C75.2376 52.3421 71.2469 50.2113 67.9949 47.5566C64.7979 44.9659 62.1821 41.5419 61.4212 37.6354C60.708 33.9104 62.0434 29.4252 65.8154 28.4069C66.774 28.139 68.0766 28.0202 69.2911 27.421C70.5055 26.8219 71.3425 25.6573 71.9308 24.7066C72.9355 22.7305 74.5445 21.4584 76.7435 21.1251C81.0867 20.3944 84.7711 23.6785 87.0905 27.1349C89.5271 30.6018 91.2321 34.4752 92.3228 38.7656C93.3584 42.992 93.2418 47.7642 91.1083 51.8232L91.0533 51.7592Z" fill="#3A553D"/>
<path d="M60.5397 42.3977C59.0822 41.2036 57.5092 41.8885 56.1921 42.2422C54.5641 42.8632 53.5668 44.7218 53.1982 45.9286C52.727 46.8899 52.5233 48.2886 51.8944 48.9405C51.3133 49.7738 50.1321 50.7892 49.6653 52.6366C48.966 56.3525 51.1017 58.9657 52.9844 60.9066C54.922 62.9116 56.9983 64.5747 59.1297 66.3018C61.3232 67.9755 63.5239 69.5317 66.7193 70.2329C69.8047 70.806 73.0866 70.0979 75.5371 68.5473C80.3831 65.3821 83.2555 60.7992 85.6044 56.11L85.3297 55.79C80.9593 58.88 77.3177 62.5671 73.2393 64.7386C71.2312 65.7977 69.2447 66.5044 67.1916 66.3785C65.1458 66.1352 62.6126 65.1985 60.2514 64.3363C57.8975 63.3567 55.5653 62.0248 53.979 60.0515C52.3855 58.1957 52.0975 55.2175 52.8867 53.8715C53.2192 53.252 54.0346 52.4398 54.8788 51.1578C55.9095 49.7155 55.8168 48.3491 56.1998 46.9075C56.4513 45.6902 56.4468 44.8041 57.2477 44.2268C58.0558 43.532 59.1748 42.57 60.1667 42.7184L60.4775 42.4511L60.5397 42.3977Z" fill="#3A553D"/>
<path d="M82.9722 21.3317C83.3884 20.3064 84.5479 19.6433 85.5209 19.1405C86.5011 18.5203 87.1893 18.8184 88.2983 18.9773C90.3225 19.573 94.2683 20.5189 96.3935 19.4704C98.1458 18.7425 100.638 19.3804 102.162 21.4071C103.632 23.3698 103.879 26.0491 103.728 28.5153C103.335 31.0779 102.887 33.5764 102.735 36.0427C102.584 38.5089 102.308 41.082 101.71 43.1537C100.974 47.4568 96.8812 49.8632 91.8875 51.5981L91.9208 52.0143C94.6072 52.3744 97.3774 52.3287 100.04 51.1515C102.758 50.0383 105.102 47.3562 105.923 44.537C106.861 41.7283 106.73 39.0595 106.662 36.3373C106.594 33.6151 106.463 30.9464 105.974 28.3634C105.431 25.7165 104.715 22.995 103.212 20.6159C101.882 18.3114 99.2153 15.7095 95.7208 16.0442C92.8596 16.6131 91.6074 15.9099 88.4931 15.8065C87.0878 15.6799 84.9914 16.2587 84.0373 17.4127C83.1453 18.5132 82.184 19.7847 82.4965 21.407L82.91 21.3852L82.9722 21.3317Z" fill="#3A553D"/>
<path d="M104.872 23.3045C105.721 22.9085 106.815 23.3023 107.683 23.5576C108.722 23.8874 108.935 24.2608 109.532 25.0822C110.485 26.8213 113.056 29.0604 114.956 29.7629C116.904 30.6469 118.921 31.36 119.384 33.4092C119.854 35.341 118.952 37.5625 117.734 39.1651C115.073 42.2319 111.415 44.2642 107.75 46.4139C104.382 48.5314 100.533 49.838 96.0037 50.7289L95.9198 51.1347C100.338 53.0088 105.549 52.5335 109.924 50.3296C113.775 48.0195 117.904 45.0258 119.606 40.3374C120.398 37.9879 120.831 35.7242 120.631 33.2263C120.439 30.611 118.406 28.2432 116.666 26.8466C114.583 25.3009 113.557 24.7362 111.73 22.8593C110.905 21.8994 108.951 21.1328 107.758 21.3797C106.572 21.5091 105.028 21.7243 104.356 23.0808L104.631 23.4008L104.872 23.3045Z" fill="#3A553D"/>
<path d="M81.2358 61.0895C83.0968 63.3828 85.4479 65.3659 88.3729 66.6331C91.2358 67.9538 94.7564 68.1528 97.8951 66.9004C101.103 65.477 103.22 62.6564 104.11 59.6663C105 56.6761 104.836 53.5911 104.073 50.6882C103.135 53.4969 102.383 56.1452 101.13 58.3351C99.8217 60.4609 98.2387 62.2668 96.1901 63.027C94.1892 63.9686 91.6604 63.918 89.1533 63.515C86.5913 63.0481 83.9482 61.9833 81.1808 61.0255L81.2358 61.0895Z" fill="#3A553D"/>
<path d="M91.0461 51.8765C85.6601 48.4982 80.9462 43.7634 77.2819 38.2374C79.6696 44.416 83.4915 50.2514 88.4946 55.0713L90.9912 51.8125L91.0461 51.8765Z" fill="#3A553D"/>
<path d="M97.8963 51.5489C97.656 48.7521 98.3553 45.0363 98.6817 41.6411C98.891 38.2353 99.3084 34.317 97.1321 31.4049C98.584 34.606 97.4856 38.1087 96.6431 41.2803C95.7311 44.6227 94.3796 47.4533 93.7757 51.532L97.9512 51.6128L97.8963 51.5489Z" fill="#3A553D"/>
<path d="M105.847 49.608C108.222 45.4526 109.736 40.9246 110.307 36.4295C108.408 40.5097 105.772 44.1101 102.595 46.9533L105.847 49.608Z" fill="#3A553D"/>
<path d="M82.3402 60.3625C80.472 58.1867 79.1882 58.9567 78.4855 58.8934L76.2937 59.1093C74.991 59.2281 73.8893 58.9518 72.5128 58.3554C69.7526 57.2802 67.1312 55.8632 64.3855 54.553C66.7438 56.4187 69.0328 58.4553 71.6325 60.2246C72.8153 61.0987 74.5215 62.079 76.2782 62.2373L78.6132 62.5657C79.3231 62.5115 79.8104 63.2049 78.7997 62.4053L82.3952 60.4265L82.3402 60.3625Z" fill="#3A553D"/>
<path d="M174.166 167.179C174.415 171.748 175.422 176.444 177.925 180.744C180.311 185.033 184.277 188.519 189.007 190.126C193.619 191.722 199.401 191.535 202.911 188.072C204.714 186.522 205.817 183.905 205.782 181.599C205.637 179.166 207.162 178.299 209.13 176.941C213.749 173.638 213.066 166.55 209.838 162.539C206.687 158.24 201.719 155.726 196.815 155.048C191.848 154.424 187.168 154.888 182.636 156.782C178.33 158.815 174.282 162.407 174.104 167.232L174.166 167.179ZM174.579 167.157C174.744 162.566 179.671 159.999 183.655 159.354C187.812 158.784 192.353 158.661 196.376 159.319C200.398 159.977 204.293 161.744 206.876 164.752C209.349 167.632 210.418 172.275 207.653 175.096C206.9 175.855 205.975 176.539 205.2 177.65C204.425 178.761 204.331 180.288 204.267 181.345C204.364 183.597 203.655 185.541 201.984 186.867C198.635 189.635 193.869 188.616 190.215 186.751C186.382 184.93 183.068 182.329 180.024 179.161C177.105 175.887 174.774 171.662 174.642 167.104L174.579 167.157Z" fill="#3A553D"/>
<path d="M205.338 160.067C207.143 160.407 208.174 158.965 209.113 158.045C210.199 156.667 210.15 154.596 209.815 153.326C209.763 152.259 209.202 150.85 209.37 150.039C209.49 149.046 209.935 147.55 209.465 145.619C208.214 142.022 205.109 140.798 202.507 140.032C199.904 139.266 197.225 138.789 194.601 138.375C191.914 138.015 189.221 137.773 186.159 138.737C183.151 139.765 180.83 142.095 179.438 144.626C176.881 149.828 176.659 155.358 177.037 160.706L177.443 160.802C179.627 155.921 180.881 150.838 183.297 146.981C184.474 145.08 185.753 143.424 187.637 142.472C189.451 141.69 192.133 141.164 194.574 140.735C197.124 140.433 199.715 140.43 202.069 141.41C204.375 142.208 206.05 144.662 206.066 146.316C206.139 147.031 205.778 148.121 205.739 149.711C205.569 151.527 206.324 152.657 206.705 154.109C207.102 155.325 207.527 156.072 207.173 157.044C206.757 158.069 206.256 159.5 205.47 159.843L205.386 160.249L205.338 160.067Z" fill="#3A553D"/>
<path d="M196.677 189.872C196.846 190.95 196.181 192.189 195.655 193.087C195.122 194.101 194.412 194.155 193.384 194.594C191.412 195.066 187.515 196.191 186.269 198.264C185.177 199.759 182.659 200.477 180.368 199.444C178.131 198.475 176.559 196.267 175.463 193.984C174.491 191.594 173.643 189.096 172.547 186.813C171.451 184.53 170.362 182.129 169.906 179.962C168.395 175.811 170.708 171.709 174.082 167.585L173.807 167.265C171.393 168.228 169.06 169.789 167.268 172.108C165.477 174.426 164.847 177.971 165.549 180.928C166.133 183.873 167.581 186.188 169.028 188.504C170.414 190.872 171.923 193.134 173.565 195.171C175.323 197.219 177.261 199.224 179.765 200.63C182.035 202.015 185.629 202.93 188.46 200.941C190.698 199.017 192.056 198.962 194.733 197.55C196.002 197.015 197.516 195.38 197.727 193.864C197.931 192.465 198.149 190.831 197.05 189.551L196.739 189.819L196.677 189.872Z" fill="#3A553D"/>
<path d="M176.971 199.139C176.452 199.918 175.322 200.112 174.425 200.326C173.35 200.584 173.013 200.317 172.098 199.88C170.399 198.783 167.079 198.188 165.121 198.425C163.047 198.652 160.965 198.996 159.529 197.449C158.21 195.913 157.824 193.576 158.126 191.537C158.847 187.468 160.951 183.879 162.946 180.162C164.755 176.605 167.361 173.474 170.78 170.535L170.505 170.215C165.942 170.689 161.634 173.726 159.025 177.86C156.899 181.802 154.846 186.459 155.769 191.56C156.265 194.026 157.01 196.278 158.417 198.294C159.872 200.492 162.749 201.577 164.967 201.895C167.481 202.181 168.66 202.169 171.145 202.924C172.295 203.382 174.377 203.038 175.247 202.29C176.234 201.552 177.408 200.654 177.323 199.17L176.909 199.192L176.971 199.139Z" fill="#3A553D"/>
<path d="M178.392 153.979C175.694 152.851 172.663 152.342 169.582 152.655C166.501 152.967 163.348 154.455 161.294 157.222C159.295 160.053 158.837 163.673 159.593 166.693C160.343 169.831 161.948 172.455 164.057 174.535C163.411 171.642 162.757 168.867 162.737 166.327C162.771 163.85 163.274 161.415 164.615 159.706C165.902 157.932 168.042 156.649 170.339 155.675C172.746 154.829 175.538 154.431 178.399 153.862L178.392 153.979Z" fill="#3A553D"/>
<path d="M174.587 167.04C180.808 167.364 187.239 169.065 193.053 172.187C187.897 167.943 181.794 164.737 175.136 162.897L174.587 167.04Z" fill="#3A553D"/>
<path d="M168.822 170.772C170.442 173.161 171.638 176.694 173.09 179.895C174.611 182.925 176.269 186.617 179.531 188.151C176.656 186.061 175.936 182.454 175.014 179.241C174.162 175.858 173.889 172.645 172.356 168.846L168.76 170.825L168.822 170.772Z" fill="#3A553D"/>
<path d="M163.809 174.748C163.843 179.947 164.096 185.402 165.916 190.29C165.523 185.177 166.653 180.201 167.948 175.417L163.809 174.748Z" fill="#3A553D"/>
<path d="M177.789 155.165C180.377 156.166 181.167 154.82 181.829 154.584L183.555 153.323C184.487 152.521 185.68 152.274 187.224 152.059C190.078 151.607 193.083 151.583 196.039 151.377C193.126 150.878 190.158 150.316 187.058 149.977C185.598 149.787 183.709 149.853 182.136 150.538L180.018 151.469C179.521 151.896 178.723 151.47 179.887 151.693L177.844 155.229L177.789 155.165Z" fill="#3A553D"/>
<path d="M162.566 155.683C142.964 152.737 122.773 155.523 104.357 162.013C86.029 168.982 69.072 178.555 52.2871 188.203C18.7983 208.096 -10.7775 233.301 -40.1191 258.527L-39.8443 258.847C-7.33016 237.567 21.9016 212.213 53.5221 190.145C69.2297 178.865 86.9342 170.54 105.512 165.246C123.885 159.462 142.886 155.918 162.545 156.036L162.511 155.619L162.566 155.683Z" fill="#3A553D"/>
<path d="M96.6789 65.61C96.67 76.2962 96.4412 86.7265 95.8539 97.2426C95.8522 107.811 94.4929 118.435 90.5931 128.239C83.145 147.88 73.3241 165.89 61.479 183.304L61.7537 183.624C77.5795 169.461 88.0942 149.743 92.7894 128.91C94.9064 118.413 97.5323 108.258 99.3052 97.6125C100.547 86.9783 99.8681 75.9939 97.1546 65.5347L96.7411 65.5565L96.6789 65.61Z" fill="#3A553D"/>
<path d="M116.994 159.49C121.314 152.44 125.82 145.229 132.531 140.46C140.167 135.008 149.874 133.225 157.551 128.071C154.304 135.868 149.908 143.207 143.622 148.722C137.337 154.237 129.161 157.929 117.057 159.437L116.994 159.49Z" stroke="#3A553D" stroke-width="1.36429" stroke-miterlimit="10"/>
<path d="M119.021 159.082C126.772 154.644 133.823 149.138 139.925 142.78C133.273 148.498 125.797 153.257 117.863 156.853L119.021 159.082Z" fill="#3A553D"/>
<path d="M104.81 165.183C111.103 164.333 117.576 163.44 123.386 165.675C130.001 168.22 135.082 174.641 141.503 177.463C135.185 179.669 128.65 180.615 122.501 179.117C116.352 177.618 110.712 173.568 104.755 165.119L104.81 165.183Z" stroke="#3A553D" stroke-width="1.36429" stroke-miterlimit="10"/>
<path d="M104.81 165.183C111.103 164.333 117.576 163.44 123.386 165.675C130.001 168.22 135.082 174.641 141.503 177.463C135.185 179.669 128.65 180.615 122.501 179.117C116.352 177.618 110.712 173.568 104.755 165.119L104.81 165.183Z" stroke="#3A553D" stroke-width="1.36429" stroke-miterlimit="10"/>
<path d="M106.055 166.004C112.034 169.317 118.615 171.445 125.214 172.335C118.783 170.634 112.665 167.662 107.363 163.878L106.055 166.004Z" fill="#3A553D"/>
<path d="M62.119 178.638C64.196 172.625 66.3424 166.442 65.188 160.315C63.9669 153.356 58.6441 147.031 57.1744 140.286C53.8164 146.065 51.6079 152.302 51.811 158.579C52.0691 164.92 54.9802 171.205 62.0569 178.691L62.119 178.638Z" stroke="#3A553D" stroke-width="2.27382" stroke-miterlimit="10"/>
<path d="M62.119 178.638C64.196 172.625 66.3424 166.442 65.188 160.315C63.9669 153.356 58.6441 147.031 57.1744 140.286C53.8164 146.065 51.6079 152.302 51.811 158.579C52.0691 164.92 54.9802 171.205 62.0569 178.691L62.119 178.638Z" stroke="#3A553D" stroke-width="1.36429" stroke-miterlimit="10"/>
<path d="M63.4328 174.505C60.4928 168.69 58.533 162.254 57.821 155.636C57.1205 162.245 57.6938 169.205 59.577 175.929L63.4328 174.505Z" fill="#3A553D"/>
<path d="M94.7445 104.759C88.7629 102.449 82.5542 100.001 78.5502 95.2116C73.8796 89.7721 72.4893 81.7349 68.1773 76.2096C74.8166 77.3981 81.0874 79.7933 85.8302 84.0584C90.5729 88.3235 93.6012 94.6188 94.7445 104.759Z" stroke="#3A553D" stroke-width="1.36429" stroke-miterlimit="10"/>
<path d="M94.7445 104.759C88.7629 102.449 82.5542 100.001 78.5502 95.2116C73.8796 89.7721 72.4893 81.7349 68.1773 76.2096C74.8166 77.3981 81.0874 79.7933 85.8302 84.0584C90.5729 88.3235 93.6012 94.6188 94.7445 104.759Z" stroke="#3A553D" stroke-width="1.36429" stroke-miterlimit="10"/>
<path d="M94.169 103.586C90.3282 97.099 85.4449 91.2861 79.6698 86.5738C84.8782 91.8846 88.975 98.0399 91.9816 104.688L94.169 103.586Z" fill="#3A553D"/>
<path d="M15.1844 214.206C22.119 205.797 29.2475 197.11 30.9698 187.287C32.8886 176.182 27.6419 164.786 29.14 153.821C20.1334 161.453 12.7708 170.119 9.58098 179.869C6.33618 189.555 7.56047 200.293 15.1844 214.206Z" stroke="#3A553D" stroke-width="2.27382" stroke-miterlimit="10"/>
<path d="M15.1844 214.206C22.119 205.797 29.2475 197.11 30.9698 187.287C32.8886 176.182 27.6419 164.786 29.14 153.821C20.1334 161.453 12.7708 170.119 9.58098 179.869C6.33618 189.555 7.56047 200.293 15.1844 214.206Z" stroke="#3A553D" stroke-width="2.27382" stroke-miterlimit="10"/>
<path d="M17.4367 212.047C16.3078 201.672 17.378 190.963 20.5345 180.796C16.1186 190.377 13.5188 201.066 13.3161 212.03L17.4989 211.994L17.4367 212.047Z" fill="#3A553D"/>
<path d="M-3.62368 232.823C5.06647 239.924 13.9836 247.163 23.8183 249.053C34.934 251.176 46.0836 246.039 57.0561 247.618C49.0814 238.456 40.0615 230.972 30.2585 227.609C20.4555 224.246 9.84764 225.357 -3.62368 232.823Z" stroke="#3A553D" stroke-width="2.27382" stroke-miterlimit="10"/>
<path d="M-3.62368 232.823C5.06647 239.924 13.9836 247.163 23.8183 249.053C34.934 251.176 46.0836 246.039 57.0561 247.618C49.0814 238.456 40.0615 230.972 30.2585 227.609C20.4555 224.246 9.84764 225.357 -3.62368 232.823Z" stroke="#3A553D" stroke-width="2.27382" stroke-miterlimit="10"/>
<path d="M-1.35634 235.212C8.94791 234.251 19.5907 235.446 29.8694 238.733C20.1386 234.196 9.35531 231.453 -1.57224 231.06L-1.35634 235.212Z" fill="#3A553D"/>
<path d="M25.8627 210.031C55.7614 202.568 88.7566 204.123 118.131 216.689C103.784 209.669 88.1395 205.544 72.3509 203.768C56.5002 202.045 40.443 202.724 24.8748 205.986L25.9176 210.095L25.8627 210.031Z" fill="#3A553D"/>
<path d="M87.566 143.968C91.5212 139.01 95.5386 133.999 101.216 131.676C107.673 129.128 115.717 130.443 122.098 128.184C119.022 134.166 115.052 139.358 109.683 142.417C104.313 145.476 97.4961 146.22 87.566 143.968Z" stroke="#3A553D" stroke-width="1.36429" stroke-miterlimit="10"/>
<path d="M87.566 143.968C91.5212 139.01 95.5386 133.999 101.216 131.676C107.673 129.128 115.717 130.443 122.098 128.184C119.022 134.166 115.052 139.358 109.683 142.417C104.313 145.476 97.4961 146.22 87.566 143.968Z" stroke="#3A553D" stroke-width="1.36429" stroke-miterlimit="10"/>
<path d="M88.9497 144.447C95.4658 142.849 101.648 139.981 106.943 136.207C101.215 139.352 94.857 141.259 88.3914 142.035L88.8875 144.5L88.9497 144.447Z" fill="#3A553D"/>
<path d="M90.4479 133.481C91.1139 129.349 91.7872 125.1 94.599 122.46C97.7289 119.435 103.305 118.757 106.6 115.924C106.904 120.557 106.224 124.924 103.969 128.086C101.713 131.249 97.5945 133.121 90.4479 133.481Z" stroke="#3A553D" stroke-width="1.36429" stroke-miterlimit="10"/>
<path d="M90.4479 133.481C91.1139 129.349 91.7872 125.1 94.599 122.46C97.7289 119.435 103.305 118.757 106.6 115.924C106.904 120.557 106.224 124.924 103.969 128.086C101.713 131.249 97.5945 133.121 90.4479 133.481Z" stroke="#3A553D" stroke-width="1.36429" stroke-miterlimit="10"/>
<path d="M92.6469 133.148C96.2163 130.635 99.1264 127.355 101.004 123.627C98.3905 126.875 95.0003 129.345 91.3714 130.907L92.5919 133.084L92.6469 133.148Z" fill="#3A553D"/>
<path d="M107.472 92.1484C111.123 90.2335 114.952 88.2758 118.795 88.9762C123.224 89.7294 127.216 93.7497 131.513 94.7272C128.032 97.7202 124.14 99.7314 120.254 99.7356C116.368 99.7398 112.315 97.6625 107.472 92.1484Z" stroke="#3A553D" stroke-width="1.36429" stroke-miterlimit="10"/>
<path d="M107.472 92.1484C111.123 90.2335 114.952 88.2758 118.795 88.9762C123.224 89.7294 127.216 93.7497 131.513 94.7272C128.032 97.7202 124.14 99.7314 120.254 99.7356C116.368 99.7398 112.315 97.6625 107.472 92.1484Z" stroke="#3A553D" stroke-width="1.36429" stroke-miterlimit="10"/>
<path d="M109.142 93.7159C113.355 95.0992 117.806 95.5001 121.97 94.8123C117.739 94.6674 113.636 93.4122 110.106 91.441L109.142 93.7159Z" fill="#3A553D"/>
<path d="M112.507 87.8194C114.949 84.4967 117.46 81.003 117.347 77.0959C117.27 72.6015 113.899 68.0467 113.58 63.6487C110.099 66.6417 107.526 70.1888 106.937 74.0326C106.347 77.8764 107.789 82.1985 112.507 87.8194Z" stroke="#3A553D" stroke-width="1.36429" stroke-miterlimit="10"/>
<path d="M112.507 87.8194C114.949 84.4967 117.46 81.003 117.347 77.0959C117.27 72.6015 113.899 68.0467 113.58 63.6487C110.099 66.6417 107.526 70.1888 106.937 74.0326C106.347 77.8764 107.789 82.1985 112.507 87.8194Z" stroke="#3A553D" stroke-width="1.36429" stroke-miterlimit="10"/>
<path d="M113.603 85.3203C112.132 81.468 111.565 77.2838 112.059 73.0771C110.752 77.0925 110.478 81.5552 111.21 85.9314L113.603 85.3203Z" fill="#3A553D"/>
<path d="M130.894 77.0172C129.282 74.5102 127.622 71.8217 127.725 69.1741C127.851 66.1741 130.202 63.3745 130.499 60.4491C132.821 62.902 134.544 65.537 134.908 68.2269C135.273 70.9167 134.218 73.7148 130.894 77.0172Z" stroke="#3A553D" stroke-width="1.36429" stroke-miterlimit="10"/>
<path d="M130.894 77.0172C129.282 74.5102 127.622 71.8217 127.725 69.1741C127.851 66.1741 130.202 63.3745 130.499 60.4491C132.821 62.902 134.544 65.537 134.908 68.2269C135.273 70.9167 134.218 73.7148 130.894 77.0172Z" stroke="#3A553D" stroke-width="1.36429" stroke-miterlimit="10"/>
<path d="M132.2 75.8948C132.621 72.8625 132.396 69.8309 131.508 67.0348C131.624 69.9385 130.982 72.7148 129.894 75.0966L132.262 75.8414L132.2 75.8948Z" fill="#3A553D"/>
<path d="M136.1 75.6557C138.846 76.9658 141.592 78.276 144.149 77.8568C147.066 77.3519 149.526 74.6804 152.449 74.0581C149.747 72.0433 147.008 70.6157 144.3 70.608C141.592 70.6002 138.977 71.9589 136.1 75.6557Z" stroke="#3A553D" stroke-width="1.36429" stroke-miterlimit="10"/>
<path d="M136.1 75.6557C138.846 76.9658 141.592 78.276 144.149 77.8568C147.066 77.3519 149.526 74.6804 152.449 74.0581C149.747 72.0433 147.008 70.6157 144.3 70.608C141.592 70.6002 138.977 71.9589 136.1 75.6557Z" stroke="#3A553D" stroke-width="1.36429" stroke-miterlimit="10"/>
<path d="M138.11 76.4863C140.319 75.032 142.968 74.0897 145.862 73.9371C143.073 73.3316 140.007 73.4097 137.069 74.2669L138.165 76.5503L138.11 76.4863Z" fill="#3A553D"/>
<path d="M112.443 215.35C111.912 218.254 111.435 221.223 112.579 223.687C113.88 226.462 117.19 228.177 118.616 230.844C119.802 227.822 120.404 224.746 119.625 222.078C118.847 219.41 116.8 217.277 112.505 215.296L112.443 215.35Z" stroke="#3A553D" stroke-width="1.36429" stroke-miterlimit="10"/>
<path d="M112.443 215.35C111.912 218.254 111.435 221.223 112.579 223.687C113.88 226.462 117.19 228.177 118.616 230.844C119.802 227.822 120.404 224.746 119.625 222.078C118.847 219.41 116.8 217.277 112.505 215.296L112.443 215.35Z" stroke="#3A553D" stroke-width="1.36429" stroke-miterlimit="10"/>
<path d="M112.196 217.453C114.203 219.287 115.823 221.677 116.89 224.43C116.712 221.58 115.776 218.602 114.116 215.914L112.251 217.517L112.196 217.453Z" fill="#3A553D"/>
<path d="M91.9597 209.49C91.418 213.515 90.8141 217.594 92.3138 220.976C94.0188 224.85 98.2843 227.301 100.121 230.95C101.614 226.774 102.225 222.578 101.215 218.885C100.261 215.256 97.5062 212.174 91.967 209.372L91.9597 209.49Z" stroke="#3A553D" stroke-width="1.36429" stroke-miterlimit="10"/>
<path d="M91.9597 209.49C91.418 213.515 90.8141 217.594 92.3138 220.976C94.0188 224.85 98.2843 227.301 100.121 230.95C101.614 226.774 102.225 222.578 101.215 218.885C100.261 215.256 97.5062 212.174 91.967 209.372L91.9597 209.49Z" stroke="#3A553D" stroke-width="1.36429" stroke-miterlimit="10"/>
<path d="M91.8559 212.138C94.4529 214.91 96.5382 218.346 97.7748 222.177C97.3103 218.238 96.0259 214.225 93.8308 210.662L91.8559 212.138Z" fill="#3A553D"/>
<path d="M60.2539 205.158C58.9085 210.764 57.6107 216.552 59.9824 221.075C62.7242 226.282 69.9508 229.413 72.9413 234.406C75.8381 228.467 77.2529 222.69 75.8542 217.663C74.3934 212.69 69.8776 208.564 60.2539 205.158Z" stroke="#3A553D" stroke-width="1.36429" stroke-miterlimit="10"/>
<path d="M60.2539 205.158C58.9085 210.764 57.6107 216.552 59.9824 221.075C62.7242 226.282 69.9508 229.413 72.9413 234.406C75.8381 228.467 77.2529 222.69 75.8542 217.663C74.3934 212.69 69.8776 208.564 60.2539 205.158Z" stroke="#3A553D" stroke-width="1.36429" stroke-miterlimit="10"/>
<path d="M60.1312 207.154C64.2551 210.95 67.6042 215.857 69.3253 221.386C68.3834 215.632 65.7182 210.137 61.8863 205.423L60.0213 207.026L60.1312 207.154Z" fill="#3A553D"/>
<path d="M55.4246 202.302C56.9421 196.77 58.6461 191.078 62.8705 188.448C67.7643 185.464 75.5198 186.694 80.5162 183.955C80.1671 190.596 78.573 196.416 74.8836 199.922C71.1943 203.427 65.3548 204.554 55.3625 202.355L55.4246 202.302Z" stroke="#3A553D" stroke-width="1.36429" stroke-miterlimit="10"/>
<path d="M55.4246 202.302C56.9421 196.77 58.6461 191.078 62.8705 188.448C67.7643 185.464 75.5198 186.694 80.5162 183.955C80.1671 190.596 78.573 196.416 74.8836 199.922C71.1943 203.427 65.3548 204.554 55.3625 202.355L55.4246 202.302Z" stroke="#3A553D" stroke-width="1.36429" stroke-miterlimit="10"/>
<path d="M57.0353 202.92C62.629 201.003 67.5444 197.666 71.1744 193.211C66.995 197.026 61.7787 199.509 56.3599 200.497L57.0353 202.92Z" fill="#3A553D"/>
<path d="M89.5998 205.735C91.8621 202.455 94.1938 199.004 97.574 197.655C101.375 196.167 106.071 197.358 109.865 195.987C108.145 200.024 105.751 203.529 102.631 205.432C99.4489 207.389 95.4859 207.682 89.5449 205.671L89.5998 205.735Z" stroke="#3A553D" stroke-width="1.36429" stroke-miterlimit="10"/>
<path d="M89.5998 205.735C91.8621 202.455 94.1938 199.004 97.574 197.655C101.375 196.167 106.071 197.358 109.865 195.987C108.145 200.024 105.751 203.529 102.631 205.432C99.4489 207.389 95.4859 207.682 89.5449 205.671L89.5998 205.735Z" stroke="#3A553D" stroke-width="1.36429" stroke-miterlimit="10"/>
<path d="M91.7484 206.223C95.7546 205.226 99.288 203.301 102.272 200.735C98.8629 202.554 95.0908 203.572 91.3144 203.704L91.7484 206.223Z" fill="#3A553D"/>
<path d="M111.5 212.49C113.43 209.829 115.367 207.052 118.422 206.205C121.898 205.219 126.331 206.858 129.854 206.054C128.467 209.472 126.467 212.303 123.673 213.704C120.878 215.106 117.123 214.886 111.5 212.49Z" stroke="#3A553D" stroke-width="1.36429" stroke-miterlimit="10"/>
<path d="M111.5 212.49C113.43 209.829 115.367 207.052 118.422 206.205C121.898 205.219 126.331 206.858 129.854 206.054C128.467 209.472 126.467 212.303 123.673 213.704C120.878 215.106 117.123 214.886 111.5 212.49Z" stroke="#3A553D" stroke-width="1.36429" stroke-miterlimit="10"/>
<path d="M113.276 213.299C116.84 212.794 120.275 211.509 122.989 209.51C119.788 210.816 116.41 211.161 113.131 210.866L113.269 213.417L113.276 213.299Z" fill="#3A553D"/>
<path d="M99.1709 98.8403C104.124 92.0239 112.299 88.3319 120.468 84.7574C124.524 82.9382 128.643 81.0656 132.282 78.382C135.921 75.6985 138.908 72.1296 140.463 67.9004C138.564 71.9806 135.419 75.24 131.685 77.5606C127.951 79.8813 123.853 81.4017 119.639 82.9115C111.335 85.8242 102.313 88.9085 95.9739 96.2495L99.2258 98.9043L99.1709 98.8403Z" fill="#3A553D"/>
</g>
</svg>
