<svg width="237" height="312" viewBox="0 0 237 312" fill="none" xmlns="http://www.w3.org/2000/svg">
<g opacity="0.5">
<path d="M45.423 99.8819C40.8632 98.8682 36.2699 97.0442 32.1904 93.5571C28.0554 90.1863 24.8077 84.957 23.5475 79.2329C22.1524 73.6447 22.7596 66.944 26.4828 63.2538C28.1336 61.41 30.7646 60.4478 33.1518 60.8768C35.5389 61.3057 36.4982 59.7364 37.9974 57.6234C41.4875 52.6608 48.6102 54.4691 52.4051 58.8457C56.518 63.1431 58.7416 69.3437 59.1032 75.1892C59.3852 81.0545 58.6484 86.5596 56.5267 91.5908C54.2532 96.3527 50.4117 100.584 45.5506 100.055L45.423 99.8819ZM45.4618 99.3605C50.0603 99.8528 52.929 94.431 53.8268 89.9092C54.6525 85.0985 55.0399 79.8851 54.5768 74.9859C54.1377 70.183 52.6725 65.3287 49.7782 61.8536C47.0115 58.5513 42.4737 56.6111 39.5361 59.3893C38.7818 60.0888 37.9647 61.2133 36.7889 61.9155C35.613 62.6176 34.1653 62.5688 33.0355 62.4407C30.8074 61.9722 28.8439 62.5635 27.352 64.3677C24.3443 67.8797 25.1034 73.6263 26.759 78.2286C28.3593 82.947 30.7064 87.2747 33.745 91.3279C36.7596 95.2848 40.8705 98.5594 45.4858 99.4569L45.4618 99.3605Z" fill="#3A553D"/>
<path d="M54.3012 64.4113C54.0901 62.2124 55.5358 61.2383 56.56 60.2669C57.9817 59.1966 60.1063 59.5886 61.3322 60.1021C62.4066 60.3462 63.7047 61.1487 64.6033 61.0273C65.6295 61.0787 67.1401 60.7026 68.9633 61.5789C72.499 63.564 73.5407 67.3981 74.1514 70.5208C74.7862 73.7399 75.0548 76.8455 75.3475 80.0474C75.5607 83.2691 75.6703 86.4143 74.5079 89.8762C73.2974 93.1454 70.8923 95.6887 68.2299 96.8633C62.8811 99.1163 57.4154 98.5329 52.1474 97.3886L52.0271 96.9068C57.0505 95.0419 62.1796 94.2764 66.2636 92.0314C68.2659 90.9188 69.9575 89.5766 70.9796 87.5823C71.8982 85.5115 72.4968 82.497 73.0639 79.695C73.5275 76.8165 73.6804 73.7082 72.8793 70.8376C72.1818 68.0435 69.8146 65.6651 68.2392 65.4434C67.531 65.3127 66.3939 65.4936 64.8426 65.3682C63.0527 65.3022 61.945 64.2476 60.5119 63.5811C59.3414 62.9516 58.5924 62.3193 57.6624 62.6532C56.6289 62.9106 55.1978 63.267 54.7783 64.2925L54.3808 64.3915L54.3012 64.4113Z" fill="#3A553D"/>
<path d="M24.1021 70.2938C23.0037 69.9533 21.8039 70.559 20.8425 71.1054C19.7775 71.5753 19.6519 72.4253 19.1769 73.5669C18.569 75.8674 17.2015 80.1991 15.1438 81.4279C13.5631 82.5378 12.7334 85.3028 13.614 88.1537C14.4705 90.9082 16.6065 93.0371 18.7812 94.6446C21.1704 96.0965 23.5355 97.4519 25.7102 99.0595C27.8849 100.667 30.2187 102.235 32.3045 103.148C36.3579 105.516 40.6491 103.424 44.8661 100.021L45.2008 100.346C44.029 103.094 42.4671 105.632 40.0045 107.269C37.5659 109.002 34.0029 109.275 31.1608 108.038C28.2632 106.918 26.0718 104.905 23.8009 102.912C21.5299 100.919 19.3385 98.9064 17.417 96.6218C15.4714 94.2408 13.5572 91.6473 12.3659 88.5668C11.1433 85.6988 10.4029 81.3803 12.6083 78.3751C14.664 76.1234 14.7561 74.4631 16.3809 71.5001C17.0463 70.1063 18.6898 68.5714 20.193 68.5041C21.6168 68.4566 23.2235 68.4658 24.4275 69.9058L24.1816 70.274L24.1021 70.2938Z" fill="#3A553D"/>
<path d="M13.7334 92.0126C12.931 92.5195 12.6631 93.8142 12.4026 94.8001C12.1106 95.9985 12.3104 96.4604 12.6786 97.5968C13.6293 99.7138 14.1144 103.687 13.6655 105.947C13.3442 108.381 12.8399 110.758 14.3231 112.64C15.7028 114.446 18.0826 115.184 20.111 115.19C24.175 114.895 27.9097 112.941 31.7479 111.064C35.3957 109.44 38.6199 106.795 41.8661 103.223L42.2563 103.433C41.416 108.862 38.1477 113.36 33.8733 115.857C29.7965 117.793 24.9875 119.502 20.0763 117.757C17.6484 116.827 15.4903 115.624 13.482 113.668C11.3701 111.636 10.4801 108.071 10.2522 105.467C10.0871 102.438 10.1719 101.086 9.58524 98.0601C9.22443 96.6149 9.64929 94.2576 10.5145 93.3258C11.2761 92.3175 12.3076 91.0372 13.8276 91.3751L13.9478 91.8569L13.7334 92.0126Z" fill="#3A553D"/>
<path d="M58.7721 96.8647C59.6935 100.217 60.0825 103.804 59.5487 107.417C59.0945 111.009 57.3274 114.417 54.5395 116.442C51.5685 118.41 48.0128 118.374 44.9876 117.081C41.9624 115.787 39.4363 113.448 37.3945 110.682C40.2921 111.802 42.9511 112.982 45.4973 113.372C48.0194 113.665 50.4212 113.476 52.1923 112.114C54.0911 110.925 55.4386 108.543 56.4754 105.931C57.4882 103.222 58.0386 100.015 58.7481 96.7684L58.7721 96.8647Z" fill="#3A553D"/>
<path d="M45.5652 99.4372C45.6619 92.0448 44.2387 84.3145 41.5674 76.9974C45.494 83.5926 48.341 91.2753 49.6774 99.3342L45.5411 99.3408L45.5652 99.4372Z" fill="#3A553D"/>
<path d="M41.5207 105.561C39.2812 103.355 35.7455 101.37 32.6869 99.2664C29.6837 97.0465 26.1314 94.6562 24.8585 90.5726C26.7747 94.189 30.3491 95.6527 33.5019 97.1191C36.8378 98.6422 39.9812 99.3945 43.7721 101.725L41.5447 105.657L41.5207 105.561Z" fill="#3A553D"/>
<path d="M35.5033 111.562C30.6736 110.82 26.0009 109.016 21.8753 106.359C26.3797 107.489 30.882 107.596 35.0402 106.663L35.5033 111.562Z" fill="#3A553D"/>
<path d="M57.5481 97.3743C56.7303 94.0985 58.0892 93.4531 58.4219 92.7562L59.8102 90.8755C60.6272 89.751 60.9987 88.5328 61.2499 86.8329C61.8558 83.5096 62.0955 80.0727 62.4943 76.5963C62.7796 80.107 63.248 83.6745 63.319 87.341C63.4099 89.0581 63.303 91.3362 62.4713 93.0783L61.4658 95.4778C61.0296 96.0981 61.3496 97.0418 61.2273 95.5372L57.5722 97.4707L57.5481 97.3743Z" fill="#3A553D"/>
<path d="M97.6388 258.295C101.376 261.765 104.805 266.028 107.075 271.398C109.4 276.653 110.176 282.804 108.938 288.332C107.755 293.743 104.417 298.975 99.5506 299.777C97.2449 300.352 94.4195 299.52 92.4833 297.853C90.499 295.993 88.9256 296.795 86.6922 297.658C81.3508 299.602 75.7158 293.944 74.0896 288.106C72.1766 282.135 72.7765 275.743 74.8982 270.712C77.0995 265.661 80.0665 261.647 84.1652 258.785C88.2566 256.231 93.5279 255.021 97.7184 258.275L97.6388 258.295ZM97.393 258.663C93.4097 255.562 88.5232 258.314 85.7854 261.554C83.0162 265.006 80.4154 269.133 78.7613 273.332C77.1071 277.53 76.4645 282.398 77.595 286.926C78.6775 291.262 82.0268 295.545 85.9392 294.98C86.9968 294.819 88.0858 294.445 89.454 294.514C90.8223 294.583 92.1686 295.578 93.1006 296.267C94.9573 297.953 96.995 298.674 99.0381 298.063C103.228 296.917 104.983 291.773 105.412 287.061C105.975 282.213 105.591 277.294 104.579 272.225C103.407 267.195 101.106 262.037 97.3135 258.683L97.393 258.663Z" fill="#3A553D"/>
<path d="M74.4674 282.179C73.7633 284.094 71.9734 284.028 70.6773 284.248C68.9115 284.278 67.1824 282.765 66.2891 281.554C65.4126 280.749 64.5267 279.23 63.7463 278.81C62.8383 278.218 61.3257 277.571 59.9461 275.765C57.5842 272.055 58.2529 268.307 59.0345 265.349C59.8161 262.392 60.8844 259.567 61.9766 256.839C63.1484 254.091 64.4238 251.42 66.9251 249.262C69.4505 247.2 72.7028 246.697 75.6151 247.2C81.4323 248.515 86.2441 252.229 90.5715 256.371L90.4292 256.815C85.089 255.382 80.0889 252.943 75.4903 252.451C73.2308 252.195 71.1229 252.208 69.2796 253.281C67.6194 254.411 65.6987 256.526 63.9924 258.486C62.3342 260.639 60.9072 263.041 60.4436 265.919C59.8524 268.625 61.0122 271.918 62.4066 273.106C62.9725 273.681 64.0949 274.118 65.4652 275.21C67.0981 276.338 67.642 277.84 68.6629 279.223C69.4767 280.453 69.8762 281.377 70.895 281.738C71.9934 282.078 73.482 282.629 74.2049 282.142L74.595 282.351L74.4674 282.179Z" fill="#3A553D"/>
<path d="M104.505 295.269C105.326 296.19 106.742 296.451 107.793 296.599C108.946 296.823 109.383 296.203 110.32 295.56C111.805 294.065 114.901 291.247 117.344 291.56C119.213 291.606 121.206 289.78 121.59 286.921C121.998 284.158 120.99 281.135 119.656 278.499C118.164 275.903 116.512 273.346 115.179 270.711C113.845 268.075 112.408 265.363 110.821 263.404C108.132 259.059 103.382 258.298 98.0288 258.505L97.9086 258.023C100.053 256.466 102.66 255.407 105.611 255.389C108.562 255.37 111.915 257.298 114.036 260.045C116.213 262.676 117.38 265.66 118.547 268.644C119.794 271.608 120.882 274.612 121.707 277.579C122.477 280.662 123.111 283.881 122.927 287.202C122.854 290.29 121.652 294.274 118.409 295.491C115.547 296.203 114.754 297.424 112.085 298.908C110.933 299.706 108.714 299.951 107.312 299.072C106.014 298.27 104.509 297.314 104.028 295.387L104.425 295.289L104.505 295.269Z" fill="#3A553D"/>
<path d="M123.198 283.553C124.145 283.624 124.931 282.712 125.606 282.033C126.415 281.217 126.375 280.715 126.508 279.557C126.511 277.202 127.832 273.7 129.11 272.052C130.442 270.287 131.879 268.599 131.357 266.171C130.78 263.858 129.01 261.843 127.114 260.678C123.268 258.463 119.067 257.872 114.818 257.088C110.807 256.244 106.719 256.444 102.346 257.532L102.226 257.051C105.138 253.153 110.082 251.308 115.022 251.818C119.534 252.639 124.612 254.035 128.43 258.508C130.248 260.716 131.748 263.003 132.684 265.738C133.748 268.646 133.087 272.085 132.137 274.368C130.996 276.904 130.338 277.989 129.612 280.83C129.368 282.221 127.932 283.909 126.819 284.187C125.65 284.58 124.243 285.032 123.032 283.901L123.278 283.533L123.198 283.553Z" fill="#3A553D"/>
<path d="M84.1217 252.86C84.648 249.556 85.8827 246.383 87.8422 243.746C89.8017 241.109 92.7967 239.238 96.2728 239.293C99.773 239.445 103.094 241.586 105.24 244.429C107.488 247.348 108.831 250.698 109.435 254.13C107.338 251.479 105.344 248.906 103.201 247.086C101.081 245.362 98.7403 244.103 96.5529 244.136C94.3415 244.072 92.0766 245.148 89.9875 246.589C87.9465 248.223 86.0738 250.532 84.0181 252.783L84.1217 252.86Z" fill="#3A553D"/>
<path d="M97.2893 258.587C94.1433 264.589 92.0496 271.763 91.4999 279.37C90.7368 271.578 91.3733 263.642 93.4743 256.16L97.2893 258.587Z" fill="#3A553D"/>
<path d="M103.624 255.884C104.759 259.08 107.097 262.694 109.013 266.311C110.747 269.87 112.966 274.025 112.473 278.139C112.282 273.991 109.619 270.765 107.401 267.633C105.001 264.444 102.427 261.913 100.048 257.798L103.703 255.864L103.624 255.884Z" fill="#3A553D"/>
<path d="M109.753 254.051C114.143 257.767 118.629 261.869 121.774 267.022C117.653 263.033 112.812 260.555 108.043 258.365L109.753 254.051Z" fill="#3A553D"/>
<path d="M85.4583 253.141C84.8838 256.252 83.3085 256.03 82.7446 256.478L80.7256 257.185C79.533 257.482 78.6679 258.414 77.6364 259.694C75.6842 262.022 74.0113 264.793 72.2109 267.39C73.39 264.333 74.5451 261.18 75.9627 258.064C76.6041 256.574 77.6984 254.869 79.1441 253.895L81.0983 252.589C81.7343 252.431 81.8118 251.388 81.3608 252.626L85.4824 253.238L85.4583 253.141Z" fill="#3A553D"/>
<path d="M94.2686 239.383C102.549 219.105 116.014 202.346 131.643 189.858C147.631 177.792 165.073 168.844 182.484 160.108C217.767 143.135 255.404 133.559 292.93 124.214L293.05 124.696C257.127 139.782 219.553 148.933 183.451 162.63C165.249 169.209 148.454 179.736 133.75 193.222C118.742 206.17 105.289 221.288 94.5792 239.613L94.2445 239.287L94.2686 239.383Z" fill="#3A553D"/>
<path d="M54.1142 114.399C63.1812 121.965 72.152 129.146 81.3927 136.056C90.3561 143.546 100.113 149.815 110.571 153.147C131.322 160.158 151.994 163.811 173.275 165.164L173.395 165.646C152.683 170.291 130.18 166.07 109.932 155.66C99.8667 150.183 89.811 145.421 79.8087 139.52C70.1077 133.135 61.1663 124.718 53.7889 114.787L54.0347 114.418L54.1142 114.399Z" fill="#3A553D"/>
<path d="M122.555 199.796C114.201 198.806 105.608 197.876 97.8746 200.723C89.0517 203.943 82.2024 211.686 73.6107 215.156C82.0075 217.67 90.6481 218.794 98.7815 216.871C106.915 214.948 114.541 209.979 122.475 199.816L122.555 199.796Z" stroke="#3A553D" stroke-width="1.36429" stroke-miterlimit="10"/>
<path d="M121.095 201.388C113.069 205.433 104.523 208.073 95.7756 209.227C104.283 207.109 112.429 203.546 119.84 198.732L121.095 201.388Z" fill="#3A553D"/>
<path d="M134.082 192.526C129.901 197.763 125.584 203.136 124.286 210.111C122.806 218.052 125.457 227.319 124.32 235.278C129.664 230.979 134.06 225.586 136.171 218.818C138.281 212.05 137.947 203.946 134.058 192.429L134.082 192.526Z" stroke="#3A553D" stroke-width="1.36429" stroke-miterlimit="10"/>
<path d="M134.082 192.526C129.901 197.763 125.584 203.136 124.286 210.111C122.806 218.052 125.457 227.319 124.32 235.278C129.664 230.979 134.06 225.586 136.171 218.818C138.281 212.05 137.947 203.946 134.058 192.429L134.082 192.526Z" stroke="#3A553D" stroke-width="1.36429" stroke-miterlimit="10"/>
<path d="M134.094 194.263C133.616 202.159 131.802 209.774 128.928 216.528C131.021 209.355 131.865 201.572 131.571 193.97L134.094 194.263Z" fill="#3A553D"/>
<path d="M168.966 162.451C162.725 160.116 156.301 157.724 151.741 152.31C146.511 146.244 144.074 136.822 139.162 130.677C145.909 131.657 152.412 134.029 157.624 138.667C162.859 143.401 166.588 150.558 169.045 162.431L168.966 162.451Z" stroke="#3A553D" stroke-width="2.27382" stroke-miterlimit="10"/>
<path d="M168.966 162.451C162.725 160.116 156.301 157.724 151.741 152.31C146.511 146.244 144.074 136.822 139.162 130.677C145.909 131.657 152.412 134.029 157.624 138.667C162.859 143.401 166.588 150.558 169.045 162.431L168.966 162.451Z" stroke="#3A553D" stroke-width="1.36429" stroke-miterlimit="10"/>
<path d="M164.739 160.74C161.424 153.89 157.045 147.51 151.824 142.158C157.814 146.193 163.4 151.658 168.067 158.172L164.739 160.74Z" fill="#3A553D"/>
<path d="M88.377 140.355C89.707 133.167 91.0445 125.67 89.185 118.56C87.1404 110.371 81.0892 103.383 78.7747 95.4658C76.1318 102.469 74.7149 109.985 75.7239 117.409C76.7329 124.833 80.4063 132.106 88.377 140.355Z" stroke="#3A553D" stroke-width="1.36429" stroke-miterlimit="10"/>
<path d="M88.377 140.355C89.707 133.167 91.0445 125.67 89.185 118.56C87.1404 110.371 81.0892 103.383 78.7747 95.4658C76.1318 102.469 74.7149 109.985 75.7239 117.409C76.7329 124.833 80.4063 132.106 88.377 140.355Z" stroke="#3A553D" stroke-width="1.36429" stroke-miterlimit="10"/>
<path d="M87.6978 138.989C84.3089 130.827 82.0646 122.175 81.244 113.476C82.8837 122.074 85.8509 130.238 89.835 137.74L87.6978 138.989Z" fill="#3A553D"/>
<path d="M224.936 144.113C213.992 144.587 202.705 145.044 193.428 139.678C182.956 133.587 176.177 120.641 166.055 114.258C177.479 111.311 188.876 110.622 198.898 114.574C208.897 118.429 217.33 127.177 224.936 144.113Z" stroke="#3A553D" stroke-width="2.27382" stroke-miterlimit="10"/>
<path d="M224.936 144.113C213.992 144.587 202.705 145.044 193.428 139.678C182.956 133.587 176.177 120.641 166.055 114.258C177.479 111.311 188.876 110.622 198.898 114.574C208.897 118.429 217.33 127.177 224.936 144.113Z" stroke="#3A553D" stroke-width="2.27382" stroke-miterlimit="10"/>
<path d="M221.867 144.673C213.689 136.271 204.019 129.673 193.662 125.395C204.215 128.089 214.709 133.254 224.118 140.838L221.787 144.693L221.867 144.673Z" fill="#3A553D"/>
<path d="M251.065 139.858C252.308 152.955 253.544 166.36 249.739 176.825C245.427 188.644 234.941 195.349 230.246 206.65C226.862 192.756 225.474 179.081 228.013 167.601C230.552 156.121 237.327 147.066 251.065 139.858Z" stroke="#3A553D" stroke-width="2.27382" stroke-miterlimit="10"/>
<path d="M251.065 139.858C252.308 152.955 253.544 166.36 249.739 176.825C245.427 188.644 234.941 195.349 230.246 206.65C226.862 192.756 225.474 179.081 228.013 167.601C230.552 156.121 237.327 147.066 251.065 139.858Z" stroke="#3A553D" stroke-width="2.27382" stroke-miterlimit="10"/>
<path d="M251.844 143.655C245.363 152.535 240.524 163.258 237.661 175.125C239.164 162.88 242.767 150.93 248.442 140.512L251.844 143.655Z" fill="#3A553D"/>
<path d="M215.524 151.062C192.755 173.515 175.931 205.233 170.435 241.396C172.371 223.107 177.475 205.667 184.65 189.758C191.905 173.829 201.31 159.411 212.637 147.278L215.548 151.158L215.524 151.062Z" fill="#3A553D"/>
<path d="M125.573 161.487C119.194 161.642 112.736 161.818 107.644 165.439C101.933 169.625 98.6251 178.021 93.2009 182.34C99.9648 183.726 106.551 183.723 112.098 180.909C117.644 178.095 122.023 172.297 125.573 161.487Z" stroke="#3A553D" stroke-width="1.36429" stroke-miterlimit="10"/>
<path d="M125.573 161.487C119.194 161.642 112.736 161.818 107.644 165.439C101.933 169.625 98.6251 178.021 93.2009 182.34C99.9648 183.726 106.551 183.723 112.098 180.909C117.644 178.095 122.023 172.297 125.573 161.487Z" stroke="#3A553D" stroke-width="1.36429" stroke-miterlimit="10"/>
<path d="M125.218 163.11C120.281 168.024 114.45 171.727 108.337 173.966C114.154 170.88 119.267 166.332 123.48 160.882L125.298 163.09L125.218 163.11Z" fill="#3A553D"/>
<path d="M115.096 156.727C111.226 154.416 107.252 152.029 103.467 152.767C99.181 153.527 95.5393 158.22 91.3256 159.269C95.0871 162.835 99.1646 165.3 103.086 165.449C107.008 165.598 110.861 163.104 115.096 156.727Z" stroke="#3A553D" stroke-width="1.36429" stroke-miterlimit="10"/>
<path d="M115.096 156.727C111.226 154.416 107.252 152.029 103.467 152.767C99.181 153.527 95.5393 158.22 91.3256 159.269C95.0871 162.835 99.1646 165.3 103.086 165.449C107.008 165.598 110.861 163.104 115.096 156.727Z" stroke="#3A553D" stroke-width="1.36429" stroke-miterlimit="10"/>
<path d="M113.604 158.532C109.511 160.063 105.128 160.437 100.935 159.537C105.126 159.415 109.085 158.02 112.405 155.76L113.58 158.435L113.604 158.532Z" fill="#3A553D"/>
<path d="M70.6843 143.225C67.0532 145.255 63.2872 147.421 61.768 151.483C59.9716 156.127 61.1856 162.681 59.6518 167.361C64.104 166.252 67.9496 164.067 70.0901 160.464C72.2306 156.861 72.6975 151.627 70.6843 143.225Z" stroke="#3A553D" stroke-width="1.36429" stroke-miterlimit="10"/>
<path d="M70.6843 143.225C67.0532 145.255 63.2872 147.421 61.768 151.483C59.9716 156.127 61.1856 162.681 59.6518 167.361C64.104 166.252 67.9496 164.067 70.0901 160.464C72.2306 156.861 72.6975 151.627 70.6843 143.225Z" stroke="#3A553D" stroke-width="1.36429" stroke-miterlimit="10"/>
<path d="M71.0951 145.886C69.9514 150.776 67.8444 155.189 64.9716 158.566C67.1749 154.537 68.3667 149.84 68.6359 145.168L71.0951 145.886Z" fill="#3A553D"/>
<path d="M64.2442 144.829C60.084 144.739 55.7406 144.593 52.4895 141.718C48.7207 138.461 46.7116 132.104 43.1572 128.691C47.6094 127.583 52.0323 127.709 55.616 129.887C59.1998 132.065 62.072 136.467 64.2442 144.829Z" stroke="#3A553D" stroke-width="1.36429" stroke-miterlimit="10"/>
<path d="M64.2442 144.829C60.084 144.739 55.7406 144.593 52.4895 141.718C48.7207 138.461 46.7116 132.104 43.1572 128.691C47.6094 127.583 52.0323 127.709 55.616 129.887C59.1998 132.065 62.072 136.467 64.2442 144.829Z" stroke="#3A553D" stroke-width="1.36429" stroke-miterlimit="10"/>
<path d="M61.5225 144.074C59.0645 139.979 55.8281 136.486 51.9892 133.963C56.1127 135.597 60.0479 138.506 63.3564 142.287L61.5225 144.074Z" fill="#3A553D"/>
<path d="M44.9739 154.232C43.7345 150.959 42.3675 147.513 40.0652 145.733C37.4522 143.723 33.7856 143.919 31.1412 142.122C31.9443 146.015 33.2319 149.481 35.3124 151.726C37.3929 153.971 40.346 154.975 44.9739 154.232Z" stroke="#3A553D" stroke-width="1.36429" stroke-miterlimit="10"/>
<path d="M44.9739 154.232C43.7345 150.959 42.3675 147.513 40.0652 145.733C37.4522 143.723 33.7856 143.919 31.1412 142.122C31.9443 146.015 33.2319 149.481 35.3124 151.726C37.3929 153.971 40.346 154.975 44.9739 154.232Z" stroke="#3A553D" stroke-width="1.36429" stroke-miterlimit="10"/>
<path d="M43.3043 154.648C40.5009 152.89 38.0542 150.532 36.1714 147.726C38.5699 149.892 41.2771 151.264 43.8954 151.943L43.2248 154.668L43.3043 154.648Z" fill="#3A553D"/>
<path d="M40.9566 158.098C40.5578 161.575 40.159 165.051 38.3973 167.127C36.3656 169.475 32.7472 169.864 30.612 172.136C30.3894 168.2 30.6847 164.647 32.1671 162.129C33.6496 159.611 36.2398 158.147 40.9566 158.098Z" stroke="#3A553D" stroke-width="1.36429" stroke-miterlimit="10"/>
<path d="M40.9566 158.098C40.5578 161.575 40.159 165.051 38.3973 167.127C36.3656 169.475 32.7472 169.864 30.612 172.136C30.3894 168.2 30.6847 164.647 32.1671 162.129C33.6496 159.611 36.2398 158.147 40.9566 158.098Z" stroke="#3A553D" stroke-width="1.36429" stroke-miterlimit="10"/>
<path d="M40.5557 160.552C38.1078 161.571 35.8522 163.36 34.1313 165.938C35.1514 162.921 36.9038 160.131 39.2461 158.012L40.5797 160.648L40.5557 160.552Z" fill="#3A553D"/>
<path d="M172.427 235.169C175.182 236.735 177.962 238.396 179.423 241.205C181.06 244.379 180.695 248.666 182.172 251.88C178.957 250.838 176.019 249.216 174.184 246.603C172.349 243.99 171.666 240.578 172.348 235.189L172.427 235.169Z" stroke="#3A553D" stroke-width="1.36429" stroke-miterlimit="10"/>
<path d="M172.427 235.169C175.182 236.735 177.962 238.396 179.423 241.205C181.06 244.379 180.695 248.666 182.172 251.88C178.957 250.838 176.019 249.216 174.184 246.603C172.349 243.99 171.666 240.578 172.348 235.189L172.427 235.169Z" stroke="#3A553D" stroke-width="1.36429" stroke-miterlimit="10"/>
<path d="M174.346 236.431C174.798 239.594 175.934 242.79 177.682 245.732C175.363 243.546 173.352 240.568 171.985 237.121L174.371 236.528L174.346 236.431Z" fill="#3A553D"/>
<path d="M178.721 212.009C182.432 214.36 186.223 216.69 188.267 220.48C190.614 224.807 190.347 230.502 192.431 234.793C188.069 233.219 184.175 230.811 181.599 227.257C179.046 223.799 177.947 219.058 178.617 211.932L178.721 212.009Z" stroke="#3A553D" stroke-width="1.36429" stroke-miterlimit="10"/>
<path d="M178.721 212.009C182.432 214.36 186.223 216.69 188.267 220.48C190.614 224.807 190.347 230.502 192.431 234.793C188.069 233.219 184.175 230.811 181.599 227.257C179.046 223.799 177.947 219.058 178.617 211.932L178.721 212.009Z" stroke="#3A553D" stroke-width="1.36429" stroke-miterlimit="10"/>
<path d="M181.023 213.79C181.946 218.165 183.713 222.535 186.282 226.398C183.197 223.175 180.501 219.139 178.686 214.576L181.023 213.79Z" fill="#3A553D"/>
<path d="M192.481 179.519C197.975 182.244 203.596 185.143 206.128 190.55C209.036 196.785 207.718 205.71 210.307 212.024C203.678 210.502 198.001 207.72 194.508 202.859C191.094 197.978 190.077 190.863 192.481 179.519Z" stroke="#3A553D" stroke-width="1.36429" stroke-miterlimit="10"/>
<path d="M192.481 179.519C197.975 182.244 203.596 185.143 206.128 190.55C209.036 196.785 207.718 205.71 210.307 212.024C203.678 210.502 198.001 207.72 194.508 202.859C191.094 197.978 190.077 190.863 192.481 179.519Z" stroke="#3A553D" stroke-width="1.36429" stroke-miterlimit="10"/>
<path d="M194.241 180.82C195.193 187.337 197.512 193.923 201.254 199.439C196.893 194.487 193.699 188.119 191.808 181.221L194.193 180.627L194.241 180.82Z" fill="#3A553D"/>
<path d="M192.715 173.013C187.189 170.5 181.426 168.047 176.872 170.102C171.651 172.527 168.429 180.596 163.36 183.291C169.183 187.674 174.995 190.32 179.996 189.382C184.998 188.443 189.165 183.824 192.794 172.993L192.715 173.013Z" stroke="#3A553D" stroke-width="1.36429" stroke-miterlimit="10"/>
<path d="M192.715 173.013C187.189 170.5 181.426 168.047 176.872 170.102C171.651 172.527 168.429 180.596 163.36 183.291C169.183 187.674 174.995 190.32 179.996 189.382C184.998 188.443 189.165 183.824 192.794 172.993L192.715 173.013Z" stroke="#3A553D" stroke-width="1.36429" stroke-miterlimit="10"/>
<path d="M192.353 174.946C187.651 178.777 182.119 180.973 176.345 181.183C181.879 180.01 186.852 176.929 190.67 172.602L192.353 174.946Z" fill="#3A553D"/>
<path d="M176.834 207.157C172.808 206.932 168.6 206.649 165.598 208.829C162.246 211.301 160.673 216.503 157.425 219.052C161.794 220.317 166.082 220.58 169.412 219.034C172.821 217.469 175.249 213.999 176.81 207.061L176.834 207.157Z" stroke="#3A553D" stroke-width="1.36429" stroke-miterlimit="10"/>
<path d="M176.834 207.157C172.808 206.932 168.6 206.649 165.598 208.829C162.246 211.301 160.673 216.503 157.425 219.052C161.794 220.317 166.082 220.58 169.412 219.034C172.821 217.469 175.249 213.999 176.81 207.061L176.834 207.157Z" stroke="#3A553D" stroke-width="1.36429" stroke-miterlimit="10"/>
<path d="M176.067 209.498C173.018 212.508 169.443 214.422 165.627 215.372C169.043 213.498 171.981 210.72 174.169 207.309L176.067 209.498Z" fill="#3A553D"/>
<path d="M170.52 232.267C167.203 232.172 163.782 232 161.384 234.235C158.637 236.761 157.59 242.036 154.97 244.735C158.631 245.871 162.132 246.022 164.857 244.423C167.582 242.823 169.46 239.183 170.52 232.267Z" stroke="#3A553D" stroke-width="1.36429" stroke-miterlimit="10"/>
<path d="M170.52 232.267C167.203 232.172 163.782 232 161.384 234.235C158.637 236.761 157.59 242.036 154.97 244.735C158.631 245.871 162.132 246.022 164.857 244.423C167.582 242.823 169.46 239.183 170.52 232.267Z" stroke="#3A553D" stroke-width="1.36429" stroke-miterlimit="10"/>
<path d="M170.23 234.489C167.842 237.437 164.863 239.714 161.676 240.814C164.543 238.77 166.693 235.881 168.246 232.629L170.334 234.565L170.23 234.489Z" fill="#3A553D"/>
<path d="M80.9235 140.266C72.4199 140.03 64.7935 144.999 57.2708 150.045C53.4974 152.519 49.6445 155.014 45.368 156.488C41.0915 157.962 36.4229 158.204 31.9813 156.649C36.4857 157.779 40.9786 157.172 44.9999 155.352C49.0211 153.532 52.5634 150.808 56.161 147.967C63.1974 142.326 70.7735 136.142 80.4844 135.463L80.9475 140.363L80.9235 140.266Z" fill="#3A553D"/>
</g>
</svg>
