<svg width="184" height="321" viewBox="0 0 184 321" fill="none" xmlns="http://www.w3.org/2000/svg">
<g opacity="0.5">
<path d="M136.085 50.1476C134.278 46.4825 133.006 42.3429 133.153 37.6256C133.19 32.9354 134.985 27.8125 138.207 23.7651C141.263 19.7017 146.177 16.3794 150.742 16.8538C152.908 16.9484 155.008 18.2009 156.024 20.0629C157.04 21.925 158.639 21.7025 160.906 21.5439C166.212 21.1505 168.882 27.001 167.97 32.0206C167.288 37.2123 164.268 42.1803 160.469 45.6845C156.614 49.1456 152.446 51.7133 147.842 53.0751C143.34 54.1838 138.341 53.9307 136.037 50.3307L136.085 50.1476ZM136.463 49.8833C138.648 53.2842 143.928 52.2124 147.512 50.3023C151.254 48.1821 155.03 45.5395 158.126 42.4938C161.169 39.5181 163.685 35.8161 164.473 31.9113C165.214 28.1896 164.052 24.0229 160.542 23.5743C159.65 23.4514 158.433 23.5227 157.308 23.1147C156.184 22.7066 155.423 21.6951 154.891 20.8556C153.99 19.0796 152.509 18.0743 150.457 18.0657C146.406 17.9785 142.894 21.6977 140.655 25.3887C138.306 29.1067 136.635 33.1148 135.53 37.44C134.477 41.6951 134.493 46.3153 136.41 49.9534L136.463 49.8833Z" fill="#3A553D"/>
<path d="M165.205 36.4121C166.592 35.0429 168.051 35.4829 169.277 35.6377C170.788 36.0077 171.685 37.6707 172.007 38.7904C172.429 39.6569 172.592 40.9867 173.168 41.53C173.695 42.2564 174.781 43.0737 175.181 44.8018C175.763 48.3121 173.713 51.1575 171.913 53.3133C170.06 55.5392 168.084 57.4529 166.055 59.4367C163.969 61.3774 161.879 63.2051 158.875 64.3445C155.976 65.3438 152.918 65.1263 150.655 63.971C146.182 61.5902 143.583 57.5491 141.477 53.3296L141.74 52.9793C145.77 55.3551 149.106 58.4155 152.88 59.9408C154.739 60.6819 156.584 61.0838 158.508 60.6671C160.428 60.1373 162.817 58.864 165.044 57.6877C167.266 56.3984 169.475 54.7698 170.999 52.625C172.526 50.5933 172.854 47.6582 172.142 46.4636C171.843 45.9092 171.096 45.237 170.331 44.1123C169.395 42.8587 169.508 41.5178 169.178 40.1719C168.967 39.0252 168.988 38.1636 168.25 37.7174C167.507 37.1582 166.479 36.3839 165.548 36.6703L165.262 36.4552L165.205 36.4121Z" fill="#3A553D"/>
<path d="M144.623 19.1594C144.254 18.2229 143.182 17.7448 142.281 17.3957C141.376 16.9336 140.726 17.322 139.685 17.6354C137.779 18.5044 134.067 19.9892 132.099 19.2751C130.473 18.8191 128.127 19.7963 126.661 21.9841C125.248 24.1018 124.963 26.7407 125.057 29.1153C125.374 31.5489 125.744 33.9124 125.838 36.287C125.931 38.6616 126.139 41.1223 126.658 43.0495C127.262 47.1252 131.045 48.8766 135.685 49.8463L135.646 50.2555C133.124 50.9905 130.533 51.3433 128.063 50.5813C125.541 49.8894 123.401 47.6193 122.688 44.9976C121.865 42.403 122.039 39.7912 122.157 37.1364C122.274 34.4815 122.449 31.8697 122.957 29.2899C123.518 26.6399 124.242 23.8929 125.694 21.3658C126.985 18.9359 129.531 16.0254 132.795 15.8496C135.462 15.9922 136.648 15.1293 139.565 14.5824C140.883 14.2579 142.833 14.5197 143.704 15.5042C144.517 16.4456 145.391 17.5432 145.067 19.1644L144.681 19.2025L144.623 19.1594Z" fill="#3A553D"/>
<path d="M124.088 24.2163C123.301 23.9533 122.269 24.4928 121.452 24.8652C120.473 25.3348 120.267 25.7281 119.692 26.6118C118.766 28.4382 116.315 30.9825 114.523 31.9375C112.683 33.0757 110.781 34.0577 110.308 36.1152C109.83 38.0597 110.631 40.0889 111.738 41.4716C114.169 44.0699 117.553 45.5202 120.94 47.0835C124.052 48.658 127.628 49.3757 131.85 49.592L131.92 49.9743C127.748 52.4288 122.88 52.714 118.829 51.1998C115.27 49.5074 111.464 47.1906 109.964 42.8789C109.269 40.7096 108.908 38.5722 109.144 36.1165C109.375 33.5477 111.325 30.9555 112.98 29.349C114.961 27.5484 115.931 26.8527 117.679 24.7669C118.469 23.7161 120.313 22.691 121.425 22.7598C122.532 22.7155 123.973 22.7032 124.575 23.9249L124.312 24.2753L124.088 24.2163Z" fill="#3A553D"/>
<path d="M145.468 57.5416C143.681 60.0367 141.442 62.3007 138.679 63.9514C135.974 65.6451 132.675 66.3433 129.762 65.5764C126.787 64.6534 124.862 62.2161 124.087 59.4384C123.313 56.6606 123.527 53.6395 124.298 50.7094C125.121 53.304 125.773 55.7695 126.903 57.7176C128.085 59.5956 129.531 61.1234 131.434 61.5683C133.288 62.1964 135.656 61.7846 138.01 61.0336C140.417 60.2125 142.912 58.799 145.521 57.4716L145.468 57.5416Z" fill="#3A553D"/>
<path d="M136.467 49.9964C141.574 45.9416 146.079 40.665 149.617 34.7703C147.261 41.1161 143.57 47.3341 138.792 52.7348L136.52 49.9263L136.467 49.9964Z" fill="#3A553D"/>
<path d="M130.062 50.66C130.342 47.9081 129.761 44.3978 129.522 41.1456C129.393 37.8664 129.079 34.1189 131.173 30.9774C129.751 34.2959 130.711 37.5419 131.437 40.5028C132.225 43.6197 133.434 46.1763 133.919 50.0528L130.01 50.7301L130.062 50.66Z" fill="#3A553D"/>
<path d="M122.66 49.9142C120.518 46.2171 119.19 42.0345 118.744 37.7487C120.441 41.4409 122.837 44.5615 125.755 46.8685L122.66 49.9142Z" fill="#3A553D"/>
<path d="M144.449 56.9935C146.24 54.6115 147.426 55.1756 148.085 55.0133L150.132 54.9089C151.349 54.8376 152.386 54.4111 153.686 53.6343C156.29 52.1938 158.771 50.441 161.367 48.7744C159.123 50.9253 156.941 53.2323 154.473 55.3243C153.349 56.3432 151.733 57.5404 150.085 57.946L147.893 58.5999C147.23 58.649 146.76 59.3926 147.722 58.4708L144.396 57.0635L144.449 56.9935Z" fill="#3A553D"/>
<path d="M56.4094 173.949C56.0865 178.424 55.052 183.131 52.6248 187.668C50.3074 192.177 46.5268 196.134 42.0688 198.373C37.7207 200.586 32.313 201.232 29.0958 198.371C27.439 197.123 26.4582 194.739 26.5361 192.493C26.7195 190.108 25.309 189.485 23.4941 188.447C19.2359 185.899 20.0145 178.914 23.114 174.555C26.1474 169.926 30.8465 166.771 35.4499 165.409C40.1104 164.09 44.4815 163.87 48.6863 165.061C52.6759 166.419 56.394 169.328 56.4665 173.992L56.4094 173.949ZM56.0228 173.987C55.9591 169.55 51.3982 167.761 47.6815 167.706C43.8024 167.748 39.5545 168.28 35.777 169.496C31.9994 170.711 28.3191 172.988 25.8429 176.28C23.4722 179.433 22.3805 184.097 24.9121 186.443C25.6022 187.072 26.4547 187.604 27.1581 188.573C27.8614 189.541 27.9193 191.011 27.9593 192.029C27.8242 194.231 28.4489 196.018 29.987 197.067C33.0676 199.277 37.5479 197.603 41.0041 195.267C44.6274 192.948 47.7802 189.945 50.6912 186.431C53.4879 182.831 55.7526 178.392 55.9657 173.944L56.0228 173.987Z" fill="#3A553D"/>
<path d="M27.3739 171.508C25.6785 172.097 24.7421 170.843 23.8807 170.085C22.8916 168.901 22.9785 166.882 23.3161 165.6C23.3859 164.555 23.9388 163.106 23.7979 162.341C23.7051 161.394 23.3179 160.005 23.7958 158.06C25.0372 154.387 27.9667 152.752 30.4175 151.635C32.8683 150.517 35.3852 149.669 37.8494 148.891C40.3707 148.156 42.8965 147.534 45.7435 148.032C48.5378 148.6 50.665 150.531 51.9182 152.791C54.2093 157.479 54.3085 162.82 53.8498 168.071L53.4677 168.222C51.5193 163.793 50.4451 159.034 48.2601 155.633C47.1961 153.954 46.0312 152.528 44.2868 151.873C42.604 151.374 40.1042 151.247 37.8285 151.18C35.4475 151.252 33.0227 151.621 30.8003 152.91C28.6263 154.017 27.0108 156.641 26.9633 158.251C26.8802 158.956 27.197 159.963 27.2021 161.503C27.326 163.242 26.5973 164.449 26.2114 165.914C25.8166 167.153 25.404 167.94 25.7164 168.833C26.0859 169.77 26.5258 171.089 27.2552 171.309L27.3257 171.691L27.3739 171.508Z" fill="#3A553D"/>
<path d="M34.8952 199.226C34.7156 200.298 35.3136 201.407 35.7885 202.203C36.2678 203.113 36.9311 203.063 37.8846 203.342C39.721 203.518 43.3456 204.053 44.4712 205.888C45.4646 207.184 47.8063 207.521 49.9715 206.189C52.084 204.927 53.5985 202.556 54.6693 200.18C55.6258 197.718 56.468 195.17 57.5388 192.794C58.6096 190.418 59.6759 187.929 60.145 185.759C61.641 181.509 59.5568 177.855 56.4799 174.331L56.7433 173.98C58.9841 174.57 61.1373 175.753 62.7682 177.749C64.399 179.745 64.919 183.099 64.2044 186.072C63.5995 189.018 62.1993 191.475 60.7991 193.932C59.456 196.432 57.9986 198.846 56.4226 201.061C54.7367 203.303 52.8839 205.529 50.5124 207.254C48.3606 208.926 44.9785 210.33 42.3683 208.803C40.3115 207.255 39.042 207.396 36.5637 206.408C35.3862 206.07 34.0017 204.698 33.8341 203.255C33.6709 201.925 33.4988 200.369 34.5525 198.968L34.8381 199.183L34.8952 199.226Z" fill="#3A553D"/>
<path d="M53.1561 205.405C53.6265 206.088 54.6809 206.114 55.5157 206.194C56.5174 206.29 56.8379 205.982 57.7031 205.427C59.3147 204.117 62.4334 203.063 64.2609 203.013C66.1982 202.935 68.14 202.971 69.5143 201.263C70.7787 199.581 71.1861 197.255 70.9435 195.316C70.3486 191.467 68.4492 188.281 66.6552 184.955C65.0326 181.758 62.6546 179.09 59.5123 176.724L59.7757 176.374C64.037 176.181 68.0095 178.513 70.3704 182.156C72.2832 185.681 74.1128 189.912 73.1487 195.002C72.6359 197.468 71.8946 199.763 70.5382 201.924C69.1335 204.268 66.4193 205.735 64.3372 206.362C61.9784 207 60.8758 207.157 58.5348 208.248C57.45 208.857 55.5082 208.822 54.7083 208.219C53.7987 207.644 52.7176 206.94 52.8267 205.486L53.2133 205.448L53.1561 205.405Z" fill="#3A553D"/>
<path d="M52.7133 161.729C55.2607 160.245 58.107 159.316 60.9844 159.179C63.8619 159.041 66.7838 160.034 68.6521 162.428C70.4676 164.892 70.8251 168.344 70.0578 171.387C69.2949 174.543 67.7411 177.324 65.7258 179.647C66.3878 176.743 67.0541 173.953 67.1232 171.482C67.1396 169.08 66.7168 166.787 65.4948 165.318C64.3255 163.779 62.3481 162.839 60.2171 162.222C57.9808 161.745 55.3756 161.758 52.7089 161.616L52.7133 161.729Z" fill="#3A553D"/>
<path d="M56.0184 173.874C50.1892 175.081 44.1367 177.656 38.634 181.522C43.5432 176.66 49.3182 172.669 55.5859 169.927L56.0184 173.874Z" fill="#3A553D"/>
<path d="M61.3399 176.673C59.7772 179.227 58.5884 182.831 57.1666 186.15C55.6833 189.312 54.0597 193.137 50.9766 195.095C53.708 192.653 54.4531 189.044 55.3785 185.791C56.2422 182.381 56.5614 179.22 58.0707 175.309L61.397 176.716L61.3399 176.673Z" fill="#3A553D"/>
<path d="M65.9542 179.819C65.8204 184.875 65.476 190.212 63.6772 195.222C64.1448 190.197 63.1849 185.524 62.0669 181.061L65.9542 179.819Z" fill="#3A553D"/>
<path d="M53.2541 162.795C50.8121 164.138 50.0999 162.943 49.4848 162.809L47.894 161.831C47.037 161.186 45.9255 161.117 44.4846 161.129C41.8223 161.1 39.0109 161.507 36.2477 161.73C38.9842 160.828 41.7734 159.856 44.6813 159.083C46.0517 158.688 47.8177 158.482 49.2764 158.922L51.2404 159.523C51.6975 159.867 52.4528 159.338 51.3591 159.722L53.2014 162.865L53.2541 162.795Z" fill="#3A553D"/>
<path d="M67.4914 161.115C85.896 155.442 104.738 155.255 121.847 158.92C138.864 163.064 154.546 169.934 170.066 176.902C201.018 191.43 228.204 211.68 255.171 231.984L254.907 232.334C224.894 216.32 198.033 195.875 168.872 178.966C154.392 170.258 137.986 164.707 120.702 162.227C103.62 159.241 85.9063 158.522 67.5048 161.455L67.5441 161.045L67.4914 161.115Z" fill="#3A553D"/>
<path d="M130.926 64.1482C130.724 74.5303 130.733 84.6322 131.077 94.7661C130.871 105.035 131.934 115.163 135.392 124.13C141.977 142.146 150.815 158.237 161.559 173.46L161.296 173.81C146.762 162.318 137.308 144.666 133.323 125.096C131.548 115.201 129.29 105.71 127.839 95.6204C126.885 85.4656 127.737 74.6951 130.482 64.1433L130.868 64.1052L130.926 64.1482Z" fill="#3A553D"/>
<path d="M110.069 158.281C106.164 152.049 102.089 145.689 95.9016 142.018C88.8617 137.814 79.8116 137.474 72.728 133.567C75.6133 140.677 79.5835 147.177 85.3583 151.635C91.133 156.093 98.7124 158.508 110.011 158.238L110.069 158.281Z" stroke="#3A553D" stroke-width="1.36429" stroke-miterlimit="10"/>
<path d="M108.18 158.175C101.013 154.973 94.522 150.635 88.9357 145.331C95.0488 149.934 101.952 153.486 109.307 155.842L108.18 158.175Z" fill="#3A553D"/>
<path d="M121.361 162.065C115.487 162.141 109.447 162.202 103.965 165.207C97.7244 168.627 92.8426 175.595 86.7774 179.258C92.6473 180.496 98.7449 180.478 104.53 178.141C110.314 175.803 115.672 171.058 121.413 161.995L121.361 162.065Z" stroke="#3A553D" stroke-width="1.36429" stroke-miterlimit="10"/>
<path d="M121.361 162.065C115.487 162.141 109.447 162.202 103.965 165.207C97.7244 168.627 92.8426 175.595 86.7774 179.258C92.6473 180.496 98.7449 180.478 104.53 178.141C110.314 175.803 115.672 171.058 121.413 161.995L121.361 162.065Z" stroke="#3A553D" stroke-width="1.36429" stroke-miterlimit="10"/>
<path d="M120.179 163.041C114.519 167.118 108.317 170.129 102.124 171.94C108.176 169.365 113.96 165.6 118.997 161.163L120.179 163.041Z" fill="#3A553D"/>
<path d="M161.052 169.018C159.226 163.473 157.339 157.773 158.539 151.654C159.819 144.717 164.925 137.808 166.433 131.044C169.462 136.177 171.407 141.921 171.093 148.049C170.727 154.248 167.879 160.772 161.109 169.061L161.052 169.018Z" stroke="#3A553D" stroke-width="2.27382" stroke-miterlimit="10"/>
<path d="M161.052 169.018C159.226 163.473 157.339 157.773 158.539 151.654C159.819 144.717 164.925 137.808 166.433 131.044C169.462 136.177 171.407 141.921 171.093 148.049C170.727 154.248 167.879 160.772 161.109 169.061L161.052 169.018Z" stroke="#3A553D" stroke-width="1.36429" stroke-miterlimit="10"/>
<path d="M159.903 165.19C162.769 159.118 164.73 152.585 165.526 146.052C166.052 152.373 165.379 159.218 163.484 166.021L159.903 165.19Z" fill="#3A553D"/>
<path d="M131.967 101.911C137.611 98.8085 143.47 95.5391 147.311 90.3117C151.79 84.3567 153.249 76.3479 157.393 70.3609C151.156 72.4677 145.24 75.6941 140.717 80.5183C136.194 85.3425 133.237 91.8936 131.967 101.911Z" stroke="#3A553D" stroke-width="1.36429" stroke-miterlimit="10"/>
<path d="M131.967 101.911C137.611 98.8085 143.47 95.5391 147.311 90.3117C151.79 84.3567 153.249 76.3479 157.393 70.3609C151.156 72.4677 145.24 75.6941 140.717 80.5183C136.194 85.3425 133.237 91.8936 131.967 101.911Z" stroke="#3A553D" stroke-width="1.36429" stroke-miterlimit="10"/>
<path d="M132.529 100.688C136.251 93.8342 140.936 87.4859 146.433 82.0791C141.454 87.9862 137.499 94.5545 134.555 101.445L132.529 100.688Z" fill="#3A553D"/>
<path d="M204.281 196.849C197.956 189.672 191.455 182.253 190.036 172.955C188.458 162.44 193.592 150.615 192.405 140.175C200.685 146.3 207.405 153.665 210.2 162.681C213.046 171.628 211.69 182.237 204.281 196.849Z" stroke="#3A553D" stroke-width="2.27382" stroke-miterlimit="10"/>
<path d="M204.281 196.849C197.956 189.672 191.455 182.253 190.036 172.955C188.458 162.44 193.592 150.615 192.405 140.175C200.685 146.3 207.405 153.665 210.2 162.681C213.046 171.628 211.69 182.237 204.281 196.849Z" stroke="#3A553D" stroke-width="2.27382" stroke-miterlimit="10"/>
<path d="M221.518 212.242C213.246 220.387 204.758 228.699 195.516 231.945C185.071 235.602 174.737 232.21 164.436 235.317C172.08 225.272 180.669 216.706 189.91 212.033C199.15 207.36 209.057 206.919 221.518 212.242Z" stroke="#3A553D" stroke-width="2.27382" stroke-miterlimit="10"/>
<path d="M221.518 212.242C213.246 220.387 204.758 228.699 195.516 231.945C185.071 235.602 174.737 232.21 164.436 235.317C172.08 225.272 180.669 216.706 189.91 212.033C199.15 207.36 209.057 206.919 221.518 212.242Z" stroke="#3A553D" stroke-width="2.27382" stroke-miterlimit="10"/>
<path d="M194.369 194.323C166.532 191.359 135.621 197.6 107.882 214.021C121.448 205.143 136.17 198.892 150.982 194.902C165.851 190.955 180.866 189.313 195.373 190.251L194.316 194.393L194.369 194.323Z" fill="#3A553D"/>
<path d="M137.916 138.979C134.312 134.729 130.65 130.435 125.382 128.993C119.389 127.443 111.834 129.874 105.907 128.593C108.669 133.964 112.282 138.441 117.247 140.643C122.213 142.846 128.578 142.591 137.916 138.979Z" stroke="#3A553D" stroke-width="1.36429" stroke-miterlimit="10"/>
<path d="M137.916 138.979C134.312 134.729 130.65 130.435 125.382 128.993C119.389 127.443 111.834 129.874 105.907 128.593C108.669 133.964 112.282 138.441 117.247 140.643C122.213 142.846 128.578 142.591 137.916 138.979Z" stroke="#3A553D" stroke-width="1.36429" stroke-miterlimit="10"/>
<path d="M136.612 139.643C130.544 139.024 124.815 137.124 119.933 134.216C125.232 136.451 131.146 137.392 137.182 137.219L136.669 139.686L136.612 139.643Z" fill="#3A553D"/>
<path d="M135.425 129.203C134.883 125.283 134.336 121.25 131.756 119.089C128.886 116.598 123.68 116.739 120.652 114.459C120.277 119.004 120.828 123.15 122.876 125.899C124.925 128.648 128.743 129.878 135.425 129.203Z" stroke="#3A553D" stroke-width="1.36429" stroke-miterlimit="10"/>
<path d="M135.425 129.203C134.883 125.283 134.336 121.25 131.756 119.089C128.886 116.598 123.68 116.739 120.652 114.459C120.277 119.004 120.828 123.15 122.876 125.899C124.925 128.648 128.743 129.878 135.425 129.203Z" stroke="#3A553D" stroke-width="1.36429" stroke-miterlimit="10"/>
<path d="M133.373 129.194C130.082 127.264 127.423 124.494 125.738 121.141C128.121 123.922 131.245 125.836 134.611 126.834L133.426 129.124L133.373 129.194Z" fill="#3A553D"/>
<path d="M120.303 91.482C116.924 90.1448 113.378 88.7916 109.767 90.0232C105.608 91.39 101.792 95.8689 97.7514 97.4348C100.951 99.8437 104.554 101.24 108.191 100.687C111.828 100.134 115.662 97.5341 120.303 91.482Z" stroke="#3A553D" stroke-width="1.36429" stroke-miterlimit="10"/>
<path d="M120.303 91.482C116.924 90.1448 113.378 88.7916 109.767 90.0232C105.608 91.39 101.792 95.8689 97.7514 97.4348C100.951 99.8437 104.554 101.24 108.191 100.687C111.828 100.134 115.662 97.5341 120.303 91.482Z" stroke="#3A553D" stroke-width="1.36429" stroke-miterlimit="10"/>
<path d="M118.709 93.2445C114.739 95.1926 110.566 96.2202 106.682 96.149C110.644 95.4017 114.509 93.5936 117.851 91.1723L118.709 93.2445Z" fill="#3A553D"/>
<path d="M115.675 87.9976C113.455 85.1191 111.174 82.0844 111.356 78.2718C111.517 73.8938 114.761 68.9848 115.146 64.6657C118.345 67.0747 120.683 70.1524 121.16 73.8028C121.636 77.4532 120.202 81.8595 115.675 87.9976Z" stroke="#3A553D" stroke-width="1.36429" stroke-miterlimit="10"/>
<path d="M115.675 87.9976C113.455 85.1191 111.174 82.0844 111.356 78.2718C111.517 73.8938 114.761 68.9848 115.146 64.6657C118.345 67.0747 120.683 70.1524 121.16 73.8028C121.636 77.4532 120.202 81.8595 115.675 87.9976Z" stroke="#3A553D" stroke-width="1.36429" stroke-miterlimit="10"/>
<path d="M114.699 85.7264C116.151 81.7724 116.764 77.6254 116.384 73.6088C117.528 77.3231 117.697 81.6199 116.926 85.9771L114.699 85.7264Z" fill="#3A553D"/>
<path d="M98.6788 80.1377C100.237 77.4706 101.844 74.6203 101.798 72.0626C101.74 69.1656 99.5948 66.7824 99.3738 63.9825C97.1522 66.6989 95.4885 69.5062 95.0945 72.1721C94.7004 74.838 95.633 77.4055 98.6788 80.1377Z" stroke="#3A553D" stroke-width="1.36429" stroke-miterlimit="10"/>
<path d="M98.6788 80.1377C100.237 77.4706 101.844 74.6203 101.798 72.0626C101.74 69.1656 99.5948 66.7824 99.3738 63.9825C97.1522 66.6989 95.4885 69.5062 95.0945 72.1721C94.7004 74.838 95.633 77.4055 98.6788 80.1377Z" stroke="#3A553D" stroke-width="1.36429" stroke-miterlimit="10"/>
<path d="M97.4789 79.2344C97.1436 76.3485 97.4145 73.3704 98.3006 70.5263C98.135 73.3643 98.681 75.9699 99.653 78.1282L97.4218 79.1914L97.4789 79.2344Z" fill="#3A553D"/>
<path d="M93.8329 79.5613C91.2374 81.2279 88.6418 82.8946 86.2563 82.8541C83.5369 82.7816 81.2865 80.5385 78.5627 80.353C81.1315 78.0078 83.7227 76.2281 86.2573 75.8323C88.792 75.4365 91.213 76.3816 93.8329 79.5613Z" stroke="#3A553D" stroke-width="1.36429" stroke-miterlimit="10"/>
<path d="M93.8329 79.5613C91.2374 81.2279 88.6418 82.8946 86.2563 82.8541C83.5369 82.7816 81.2865 80.5385 78.5627 80.353C81.1315 78.0078 83.7227 76.2281 86.2573 75.8323C88.792 75.4365 91.213 76.3816 93.8329 79.5613Z" stroke="#3A553D" stroke-width="1.36429" stroke-miterlimit="10"/>
<path d="M91.9355 80.6564C89.8966 79.5601 87.4361 79.0242 84.73 79.291C87.3523 78.3027 90.2209 77.9389 92.9536 78.3506L91.8828 80.7265L91.9355 80.6564Z" fill="#3A553D"/>
<path d="M113.231 211.905C113.672 214.651 114.06 217.466 112.941 220.025C111.668 222.908 108.537 225.049 107.15 227.845C106.099 225.078 105.597 222.176 106.377 219.472C107.158 216.768 109.116 214.402 113.174 211.862L113.231 211.905Z" stroke="#3A553D" stroke-width="1.36429" stroke-miterlimit="10"/>
<path d="M113.231 211.905C113.672 214.651 114.06 217.466 112.941 220.025C111.668 222.908 108.537 225.049 107.15 227.845C106.099 225.078 105.597 222.176 106.377 219.472C107.158 216.768 109.116 214.402 113.174 211.862L113.231 211.905Z" stroke="#3A553D" stroke-width="1.36429" stroke-miterlimit="10"/>
<path d="M113.421 213.913C111.507 215.983 109.944 218.537 108.891 221.365C109.114 218.57 110.048 215.543 111.654 212.693L113.368 213.983L113.421 213.913Z" fill="#3A553D"/>
<path d="M132.517 203.274C132.945 207.107 133.431 210.984 131.961 214.486C130.289 218.494 126.248 221.487 124.458 225.296C123.142 221.452 122.653 217.463 123.67 213.73C124.635 210.067 127.274 206.677 132.513 203.161L132.517 203.274Z" stroke="#3A553D" stroke-width="1.36429" stroke-miterlimit="10"/>
<path d="M132.517 203.274C132.945 207.107 133.431 210.984 131.961 214.486C130.289 218.494 126.248 221.487 124.458 225.296C123.142 221.452 122.653 217.463 123.67 213.73C124.635 210.067 127.274 206.677 132.513 203.161L132.517 203.274Z" stroke="#3A553D" stroke-width="1.36429" stroke-miterlimit="10"/>
<path d="M132.563 205.832C130.078 208.898 128.059 212.535 126.826 216.435C127.338 212.541 128.619 208.458 130.743 204.681L132.563 205.832Z" fill="#3A553D"/>
<path d="M162.277 194.519C163.426 199.773 164.527 205.211 162.218 209.946C159.55 215.399 152.725 219.477 149.828 224.757C147.234 219.402 146.023 213.991 147.431 208.907C148.895 203.865 153.203 199.208 162.277 194.519Z" stroke="#3A553D" stroke-width="1.36429" stroke-miterlimit="10"/>
<path d="M162.277 194.519C163.426 199.773 164.527 205.211 162.218 209.946C159.55 215.399 152.725 219.477 149.828 224.757C147.234 219.402 146.023 213.991 147.431 208.907C148.895 203.865 153.203 199.208 162.277 194.519Z" stroke="#3A553D" stroke-width="1.36429" stroke-miterlimit="10"/>
<path d="M162.352 196.441C158.418 200.721 155.187 205.969 153.468 211.587C154.463 205.862 157.065 200.141 160.744 195.01L162.458 196.301L162.352 196.441Z" fill="#3A553D"/>
<path d="M166.853 191.051C165.541 185.894 164.058 180.608 160.156 178.657C155.634 176.46 148.352 178.767 143.729 176.822C143.925 183.225 145.303 188.651 148.687 191.528C152.071 194.406 157.515 194.664 166.91 191.094L166.853 191.051Z" stroke="#3A553D" stroke-width="1.36429" stroke-miterlimit="10"/>
<path d="M166.853 191.051C165.541 185.894 164.058 180.608 160.156 178.657C155.634 176.46 148.352 178.767 143.729 176.822C143.925 183.225 145.303 188.651 148.687 191.528C152.071 194.406 157.515 194.664 166.91 191.094L166.853 191.051Z" stroke="#3A553D" stroke-width="1.36429" stroke-miterlimit="10"/>
<path d="M165.333 191.882C160.135 190.822 155.6 188.285 152.291 184.476C156.127 187.584 160.961 189.249 166.013 189.432L165.333 191.882Z" fill="#3A553D"/>
<path d="M134.8 199.287C132.747 196.424 130.632 193.406 127.495 192.58C123.967 191.679 119.549 193.509 116.025 192.721C117.555 196.397 119.727 199.459 122.61 200.861C125.549 202.307 129.253 202.023 134.853 199.217L134.8 199.287Z" stroke="#3A553D" stroke-width="1.36429" stroke-miterlimit="10"/>
<path d="M134.8 199.287C132.747 196.424 130.632 193.406 127.495 192.58C123.967 191.679 119.549 193.509 116.025 192.721C117.555 196.397 119.727 199.459 122.61 200.861C125.549 202.307 129.253 202.023 134.853 199.217L134.8 199.287Z" stroke="#3A553D" stroke-width="1.36429" stroke-miterlimit="10"/>
<path d="M132.779 200.07C129.049 199.675 125.78 198.311 123.038 196.246C126.193 197.524 129.703 197.973 133.235 197.56L132.779 200.07Z" fill="#3A553D"/>
<path d="M114.17 208.99C112.416 206.682 110.658 204.261 107.815 203.876C104.581 203.417 100.4 205.645 97.1185 205.369C98.35 208.49 100.166 210.955 102.754 211.916C105.342 212.877 108.86 212.125 114.17 208.99Z" stroke="#3A553D" stroke-width="1.36429" stroke-miterlimit="10"/>
<path d="M114.17 208.99C112.416 206.682 110.658 204.261 107.815 203.876C104.581 203.417 100.4 205.645 97.1185 205.369C98.35 208.49 100.166 210.955 102.754 211.916C105.342 212.877 108.86 212.125 114.17 208.99Z" stroke="#3A553D" stroke-width="1.36429" stroke-miterlimit="10"/>
<path d="M112.492 210.032C109.167 210.051 105.977 209.296 103.476 207.742C106.447 208.552 109.601 208.403 112.676 207.646L112.497 210.145L112.492 210.032Z" fill="#3A553D"/>
<path d="M127.941 96.794C123.439 90.8809 115.86 88.4658 108.285 86.1638C104.524 84.9778 100.706 83.7487 97.3527 81.663C93.9997 79.5773 91.2746 76.5377 89.902 72.6514C91.5995 76.3435 94.4783 79.0598 97.9278 80.7793C101.377 82.4987 105.182 83.3886 109.097 84.2514C116.812 85.8909 125.195 87.5943 130.984 93.8183L127.888 96.8641L127.941 96.794Z" fill="#3A553D"/>
</g>
</svg>
