<svg width="768" height="52" viewBox="0 0 768 52" fill="none" xmlns="http://www.w3.org/2000/svg">
<path d="M768 0C755.186 1.84326 742.361 3.36078 729.498 4.5804C677.228 9.60095 624.734 9.23902 572.225 10.0419C572.225 10.0419 572.225 10.0419 572.225 10.0419C480.906 11.3829 389.543 7.88948 298.03 7.8857C298.03 7.8857 298.03 7.8857 298.03 7.8857C209.739 8.78089 118.795 4.77712 33.2644 32.3437C21.1633 36.9656 9.10127 42.8125 0 52C9.5656 43.3205 21.7262 38.1678 33.8958 34.1408C119.575 10.7668 209.631 16.7769 298.03 15.8857C298.03 15.8857 298.03 15.8857 298.03 15.8857C389.36 15.8878 480.829 18.3617 572.346 16.0407C572.346 16.0407 572.346 16.0407 572.346 16.0407C624.815 14.6785 677.514 12.795 729.645 5.87955C742.475 4.19417 755.249 2.23339 768 0Z" fill="url(#paint0_linear_22_663)"/>
<defs>
<linearGradient id="paint0_linear_22_663" x1="384" y1="0" x2="384" y2="52" gradientUnits="userSpaceOnUse">
<stop stop-color="#3A553D"/>
<stop offset="1" stop-color="#3A553D"/>
</linearGradient>
</defs>
</svg>
