<svg width="142" height="102" viewBox="0 0 142 102" fill="none" xmlns="http://www.w3.org/2000/svg">
<path d="M84.3404 71.1352C71.9852 77.9443 58.8557 83.7321 47.3654 91.5527C38.0441 70.2554 11.3161 56.0702 14.8773 30.3414C15.8436 23.4092 18.6471 16.2145 24.2527 10.3469C26.1569 8.35699 30.6577 3.88294 33.8002 3.51412C37.0512 3.12922 41.1211 6.28783 43.0436 7.88182C55.5337 18.2903 49.9286 35.217 48.4306 49.1527C48.1768 51.5168 61.2363 49.8684 62.731 48.2656C75.0812 35.0217 89.3173 22.5882 105.321 12.1324C108.72 9.90798 114.978 5.3264 119.21 6.39448C123.185 7.39396 125.409 11.0826 126.126 14.1889C127.671 20.9416 123.727 28.3765 120.419 34.8963C112.69 50.1243 101.375 61.7491 84.3404 71.1352ZM130.8 41.1321C136.85 31.1285 148.008 12.9744 135.367 5.2168C124.542 -1.41461 105.43 3.83658 94.5085 10.5221C83.9348 16.9966 74.1237 24.5283 65.1055 32.601C66.0258 24.3973 65.8251 16.3267 60.699 9.54906C53.3636 -0.141924 38.1219 -2.19608 24.0946 2.20708C9.32302 6.85696 1.91007 20.1807 0.317749 31.6653C-1.46679 44.5481 4.49517 55.453 12.454 65.3134C21.3074 76.2806 32.2205 86.414 35.1703 100.1C35.7466 102.771 50.1012 100.472 49.7328 98.7711C49.5784 98.0488 49.3933 97.3377 49.1948 96.6316C51.6393 96.4899 54.6584 96.0874 56.344 94.7775C68.706 85.175 83.7412 78.9028 97.6605 71.1598C112.009 63.1782 123.135 53.8048 130.8 41.1321Z" fill="#3A553D"/>
</svg>
